<svg xmlns="http://www.w3.org/2000/svg" width="23.617" height="47.083" viewBox="0 0 33.617 67.083">
  <g id="Group_119" data-name="Group 119" transform="translate(-1595.375 -16029.521)">
    <path id="Path_158" data-name="Path 158" d="M1617.251,16079.011c0,4.671-.057,9.343.032,14.013.029,1.5-.246,2.149-1.945,2.075-3.251-.143-6.515-.121-9.769,0-1.515.055-1.882-.427-1.872-1.9.067-9.271-.019-18.542.079-27.813.019-1.871-.47-2.418-2.358-2.366-4.491.126-4.494.028-4.495-4.479,0-1.558.111-3.124-.03-4.668-.143-1.563.488-1.847,1.912-1.836,4.922.036,4.921-.019,4.927-4.94,0-.92-.009-1.841.024-2.76.289-8.234,3.934-12.211,12.053-13.116,3.459-.385,6.933-.1,10.4-.154,1.1-.016,1.281.54,1.271,1.455-.03,2.689-.056,5.381.011,8.067.028,1.151-.429,1.461-1.5,1.424-1.768-.06-3.545-.084-5.309.025-2.379.146-3.273,1.091-3.388,3.481-.079,1.624.028,3.259-.061,4.882-.07,1.267.335,1.776,1.67,1.721,2.192-.093,4.4.085,6.582-.058,1.676-.108,1.972.7,1.72,2.018a39.981,39.981,0,0,0-.8,7.617c0,1.13-.566,1.419-1.611,1.382-1.839-.067-3.688.078-5.52-.05-1.551-.108-2.1.326-2.059,1.973C1617.324,16069.668,1617.251,16074.34,1617.251,16079.011Z" fill="none" stroke="#1c1c3d" stroke-linecap="round" stroke-linejoin="round" stroke-width="3"/>
  </g>
</svg>
