<svg xmlns="http://www.w3.org/2000/svg" width="31.847" height="66.663" viewBox="0 0 31.847 66.663">
  <g id="Group_157" data-name="Group 157" transform="translate(-1718.362 -12621.566)">
    <path id="Path_175" data-name="Path 175" d="M1739.557,12671.492c0,4.857-.059,9.717.033,14.574.03,1.561-.255,2.235-2.023,2.157-3.381-.147-6.777-.125-10.16,0-1.577.057-1.959-.442-1.948-1.976.07-9.643-.02-19.286.082-28.927.021-1.946-.489-2.517-2.452-2.461-4.671.13-4.674.028-4.675-4.659,0-1.62.115-3.25-.032-4.856-.148-1.625.507-1.92,1.989-1.909,5.119.038,5.119-.019,5.125-5.138,0-.957-.009-1.915.024-2.871.3-8.562,4.093-12.7,12.537-13.641,3.6-.4,7.211-.108,10.817-.16,1.147-.018,1.332.561,1.321,1.512-.031,2.8-.057,5.6.012,8.392.029,1.2-.446,1.519-1.56,1.48-1.839-.062-3.687-.088-5.522.026-2.474.152-3.4,1.135-3.524,3.622-.082,1.688.03,3.388-.063,5.075-.073,1.318.349,1.849,1.737,1.79,2.279-.1,4.573.09,6.846-.059,1.743-.113,2.051.726,1.788,2.1a41.787,41.787,0,0,0-.835,7.923c0,1.176-.589,1.477-1.675,1.437-1.912-.069-3.836.082-5.742-.051-1.613-.112-2.182.34-2.141,2.052C1739.633,12661.774,1739.557,12666.634,1739.557,12671.492Z" fill="#1c1c3d"/>
  </g>
</svg>
