<svg xmlns="http://www.w3.org/2000/svg" width="116.815" height="116.45" viewBox="0 0 116.815 116.45">
  <g id="Group_77" data-name="Group 77" transform="translate(-1417.352 -4775.482)">
    <g id="Group_69" data-name="Group 69">
      <g id="Path_71" data-name="Path 71" fill="none">
        <path d="M1475.759,4889.38a2.087,2.087,0,0,1-2.087-2.087V4835.2a2.087,2.087,0,1,1,4.174,0v52.093A2.087,2.087,0,0,1,1475.759,4889.38Z" stroke="none"/>
        <path d="M 1475.759033203125 4889.3798828125 C 1474.60595703125 4889.3798828125 1473.671997070312 4888.44580078125 1473.671997070312 4887.29296875 L 1473.671997070312 4835.2001953125 C 1473.671997070312 4834.0478515625 1474.60595703125 4833.11279296875 1475.759033203125 4833.11279296875 C 1476.911987304688 4833.11279296875 1477.845947265625 4834.0478515625 1477.845947265625 4835.2001953125 L 1477.845947265625 4887.29296875 C 1477.845947265625 4888.44580078125 1476.911987304688 4889.3798828125 1475.759033203125 4889.3798828125 Z" stroke="none" fill="#00daa4"/>
      </g>
    </g>
    <g id="Group_70" data-name="Group 70">
      <g id="Path_72" data-name="Path 72" fill="none">
        <path d="M1532.08,4837.2H1419.439a2.087,2.087,0,0,1-2.087-2.087V4809.97a2.087,2.087,0,0,1,2.087-2.087H1532.08a2.087,2.087,0,0,1,2.087,2.087v25.143A2.087,2.087,0,0,1,1532.08,4837.2Zm-110.555-4.174h108.468v-20.969H1421.525Z" stroke="none"/>
        <path d="M 1532.079956054688 4837.2001953125 L 1419.43896484375 4837.2001953125 C 1418.286010742188 4837.2001953125 1417.35205078125 4836.26513671875 1417.35205078125 4835.11279296875 L 1417.35205078125 4809.97021484375 C 1417.35205078125 4808.81787109375 1418.286010742188 4807.8828125 1419.43896484375 4807.8828125 L 1532.079956054688 4807.8828125 C 1533.233032226562 4807.8828125 1534.1669921875 4808.81787109375 1534.1669921875 4809.97021484375 L 1534.1669921875 4835.11279296875 C 1534.1669921875 4836.26513671875 1533.233032226562 4837.2001953125 1532.079956054688 4837.2001953125 Z M 1421.525024414062 4812.05712890625 L 1421.525024414062 4833.02587890625 L 1529.993041992188 4833.02587890625 L 1529.993041992188 4812.05712890625 L 1421.525024414062 4812.05712890625 Z" stroke="none" fill="#1c1c3d"/>
      </g>
    </g>
    <g id="Group_71" data-name="Group 71">
      <g id="Path_73" data-name="Path 73" fill="none">
        <path d="M1511.177,4891.932h-70.836c-9.654,0-17.508-7.074-17.508-15.77v-41.049a2.087,2.087,0,0,1,4.174,0v41.049c0,6.394,5.981,11.6,13.334,11.6h70.836c7.352,0,13.334-5.2,13.334-11.6V4836.55a2.086,2.086,0,0,1,4.173,0v39.612C1528.684,4884.858,1520.831,4891.932,1511.177,4891.932Z" stroke="none"/>
        <path d="M 1511.177001953125 4891.93212890625 L 1440.340942382812 4891.93212890625 C 1430.68701171875 4891.93212890625 1422.8330078125 4884.85791015625 1422.8330078125 4876.162109375 L 1422.8330078125 4835.11279296875 C 1422.8330078125 4833.9609375 1423.766967773438 4833.02587890625 1424.920043945312 4833.02587890625 C 1426.072998046875 4833.02587890625 1427.006958007812 4833.9609375 1427.006958007812 4835.11279296875 L 1427.006958007812 4876.162109375 C 1427.006958007812 4882.55615234375 1432.988037109375 4887.7578125 1440.340942382812 4887.7578125 L 1511.177001953125 4887.7578125 C 1518.529052734375 4887.7578125 1524.510986328125 4882.55615234375 1524.510986328125 4876.162109375 L 1524.510986328125 4836.5498046875 C 1524.510986328125 4835.39794921875 1525.444946289062 4834.4638671875 1526.598022460938 4834.4638671875 C 1527.75 4834.4638671875 1528.683959960938 4835.39794921875 1528.683959960938 4836.5498046875 L 1528.683959960938 4876.162109375 C 1528.683959960938 4884.85791015625 1520.8310546875 4891.93212890625 1511.177001953125 4891.93212890625 Z" stroke="none" fill="#1c1c3d"/>
      </g>
    </g>
    <g id="Group_74" data-name="Group 74">
      <g id="Group_72" data-name="Group 72">
        <g id="Path_74" data-name="Path 74" fill="none">
          <path d="M1464.42,4802.256a13.387,13.387,0,1,1,13.387-13.387A13.4,13.4,0,0,1,1464.42,4802.256Zm0-22.6a9.214,9.214,0,1,0,9.213,9.214A9.224,9.224,0,0,0,1464.42,4779.655Z" stroke="none"/>
          <path d="M 1464.420043945312 4802.255859375 C 1457.037963867188 4802.255859375 1451.031982421875 4796.25 1451.031982421875 4788.869140625 C 1451.031982421875 4781.48681640625 1457.037963867188 4775.48193359375 1464.420043945312 4775.48193359375 C 1471.801025390625 4775.48193359375 1477.807006835938 4781.48681640625 1477.807006835938 4788.869140625 C 1477.807006835938 4796.25 1471.801025390625 4802.255859375 1464.420043945312 4802.255859375 Z M 1464.420043945312 4779.65478515625 C 1459.338989257812 4779.65478515625 1455.2060546875 4783.7880859375 1455.2060546875 4788.869140625 C 1455.2060546875 4793.94921875 1459.338989257812 4798.08203125 1464.420043945312 4798.08203125 C 1469.5 4798.08203125 1473.633056640625 4793.94921875 1473.633056640625 4788.869140625 C 1473.633056640625 4783.7880859375 1469.5 4779.65478515625 1464.420043945312 4779.65478515625 Z" stroke="none" fill="#00daa4"/>
        </g>
      </g>
      <g id="Group_73" data-name="Group 73">
        <g id="Path_75" data-name="Path 75" fill="none">
          <path d="M1487.1,4802.256a13.387,13.387,0,1,1,13.387-13.387A13.4,13.4,0,0,1,1487.1,4802.256Zm0-22.6a9.214,9.214,0,1,0,9.213,9.214A9.224,9.224,0,0,0,1487.1,4779.655Z" stroke="none"/>
          <path d="M 1487.098022460938 4802.255859375 C 1479.717041015625 4802.255859375 1473.711059570312 4796.25 1473.711059570312 4788.869140625 C 1473.711059570312 4781.48681640625 1479.717041015625 4775.48193359375 1487.098022460938 4775.48193359375 C 1494.47998046875 4775.48193359375 1500.484985351562 4781.48681640625 1500.484985351562 4788.869140625 C 1500.484985351562 4796.25 1494.47998046875 4802.255859375 1487.098022460938 4802.255859375 Z M 1487.098022460938 4779.65478515625 C 1482.017944335938 4779.65478515625 1477.885009765625 4783.7880859375 1477.885009765625 4788.869140625 C 1477.885009765625 4793.94921875 1482.017944335938 4798.08203125 1487.098022460938 4798.08203125 C 1492.177978515625 4798.08203125 1496.31103515625 4793.94921875 1496.31103515625 4788.869140625 C 1496.31103515625 4783.7880859375 1492.177978515625 4779.65478515625 1487.098022460938 4779.65478515625 Z" stroke="none" fill="#00daa4"/>
        </g>
      </g>
    </g>
    <g id="Group_75" data-name="Group 75">
      <g id="Path_76" data-name="Path 76" fill="none">
        <path d="M1475.759,4840.678a2.087,2.087,0,0,1-2.087-2.087V4809.97a2.087,2.087,0,1,1,4.174,0v28.621A2.087,2.087,0,0,1,1475.759,4840.678Z" stroke="none"/>
        <path d="M 1475.759033203125 4840.67822265625 C 1474.60595703125 4840.67822265625 1473.671997070312 4839.744140625 1473.671997070312 4838.5908203125 L 1473.671997070312 4809.97021484375 C 1473.671997070312 4808.81787109375 1474.60595703125 4807.8828125 1475.759033203125 4807.8828125 C 1476.911987304688 4807.8828125 1477.845947265625 4808.81787109375 1477.845947265625 4809.97021484375 L 1477.845947265625 4838.5908203125 C 1477.845947265625 4839.744140625 1476.911987304688 4840.67822265625 1475.759033203125 4840.67822265625 Z" stroke="none" fill="#00daa4"/>
      </g>
    </g>
    <g id="Group_76" data-name="Group 76">
      <g id="Path_77" data-name="Path 77" fill="none">
        <path d="M1532.08,4812.057H1419.439a2.087,2.087,0,0,1,0-4.174H1532.08a2.087,2.087,0,0,1,0,4.174Z" stroke="none"/>
        <path d="M 1532.079956054688 4812.05712890625 L 1419.43896484375 4812.05712890625 C 1418.286010742188 4812.05712890625 1417.35205078125 4811.123046875 1417.35205078125 4809.97021484375 C 1417.35205078125 4808.81787109375 1418.286010742188 4807.8828125 1419.43896484375 4807.8828125 L 1532.079956054688 4807.8828125 C 1533.233032226562 4807.8828125 1534.1669921875 4808.81787109375 1534.1669921875 4809.97021484375 C 1534.1669921875 4811.123046875 1533.233032226562 4812.05712890625 1532.079956054688 4812.05712890625 Z" stroke="none" fill="#1c1c3d"/>
      </g>
    </g>
  </g>
</svg>

