<svg xmlns="http://www.w3.org/2000/svg" width="87.377" height="85.402" viewBox="0 0 87.377 85.402">
  <g id="Group_123" data-name="Group 123" transform="translate(-199.719 -9435.519)">
    <path id="Path_159" data-name="Path 159" d="M230.831,9498.153h23.855a6.332,6.332,0,0,0,6.332-6.332v-27.453a6.332,6.332,0,0,0-6.332-6.333H207.551a6.332,6.332,0,0,0-6.332,6.333v27.453a6.332,6.332,0,0,0,6.332,6.332h11.463v8.7Z" fill="none" stroke="#1c1c3d" stroke-linecap="round" stroke-linejoin="round" stroke-width="3"/>
    <circle id="Ellipse_16" data-name="Ellipse 16" cx="4.377" cy="4.377" r="4.377" transform="translate(209.39 9473.177)" fill="none" stroke="#00dca6" stroke-linecap="round" stroke-linejoin="round" stroke-width="3"/>
    <circle id="Ellipse_17" data-name="Ellipse 17" cx="4.377" cy="4.377" r="4.377" transform="translate(226.741 9473.177)" fill="none" stroke="#00dca6" stroke-linecap="round" stroke-linejoin="round" stroke-width="3"/>
    <circle id="Ellipse_18" data-name="Ellipse 18" cx="4.377" cy="4.377" r="4.377" transform="translate(244.027 9473.177)" fill="none" stroke="#00dca6" stroke-linecap="round" stroke-linejoin="round" stroke-width="3"/>
    <rect id="Rectangle_52" data-name="Rectangle 52" width="10.374" height="22.144" rx="3.358" transform="translate(275.222 9468.471)" fill="none" stroke="#1c1c3d" stroke-linecap="round" stroke-linejoin="round" stroke-width="3"/>
    <rect id="Rectangle_53" data-name="Rectangle 53" width="15.11" height="9.703" rx="3.902" transform="translate(235.934 9509.718)" fill="none" stroke="#1c1c3d" stroke-linecap="round" stroke-linejoin="round" stroke-width="3"/>
    <path id="Path_160" data-name="Path 160" d="M280.71,9468.511v-11.043a20.408,20.408,0,0,0-20.366-20.449h-28.7c-6.62,0-11.987,2.972-11.987,9.618v2.418" fill="none" stroke="#1c1c3d" stroke-linecap="round" stroke-linejoin="round" stroke-width="3"/>
    <path id="Path_161" data-name="Path 161" d="M280.71,9490.656v5.081a18.942,18.942,0,0,1-18.943,18.942H251.044" fill="none" stroke="#1c1c3d" stroke-linecap="round" stroke-linejoin="round" stroke-width="3"/>
  </g>
</svg>
