<svg xmlns="http://www.w3.org/2000/svg" width="92.824" height="88.777" viewBox="0 0 92.824 88.777">
  <g id="Group_41" data-name="Group 41" transform="translate(-201.219 -9085.703)">
    <path id="Path_27" data-name="Path 27" d="M206.785,9109.806a18.211,18.211,0,0,0,6.571,10.365,20.656,20.656,0,0,0,11.654,4.312,25.291,25.291,0,0,0,4.316-.081,22.7,22.7,0,0,0,6.348-1.558,17.422,17.422,0,0,0,4.729-2.868c.08-.067.225-.108.173-.3-.274.124-.544.243-.812.368a20.645,20.645,0,0,1-6.782,1.854,23.711,23.711,0,0,1-5.1-.062,19.168,19.168,0,0,1-5.045-1.251,15.337,15.337,0,0,1-9.4-10.382,18.827,18.827,0,0,1-.657-6.331,18.4,18.4,0,0,1,1.049-5.261,15.087,15.087,0,0,1,5.435-7.319,15.935,15.935,0,0,1,8.983-2.93,22.1,22.1,0,0,1,5.133.431,15.909,15.909,0,0,1,6.782,3.071,18.381,18.381,0,0,1,3.412,3.551,28.574,28.574,0,0,1,3.495,6.316c.816,2.009,1.579,4.038,2.36,6.062a37.676,37.676,0,0,0,3.8,7.489,23.774,23.774,0,0,0,4.109,4.732,17.905,17.905,0,0,0,10.564,4.452,21.583,21.583,0,0,0,5.092-.179,19.567,19.567,0,0,0,6.557-2.2,16.2,16.2,0,0,0,6.29-6.094,10.447,10.447,0,0,0,1.162-2.754c-.119.14-.242.275-.358.418a12.457,12.457,0,0,1-1.825,1.819,16.738,16.738,0,0,1-3.059,1.973A24.417,24.417,0,0,1,271.281,9120a19.332,19.332,0,0,1-4.075-.322,14.431,14.431,0,0,1-6.122-2.646,16.677,16.677,0,0,1-3.625-3.8,24.8,24.8,0,0,1-2.753-5.13c-.635-1.6-1.214-3.218-1.8-4.833a30.834,30.834,0,0,0-1.583-3.649,25.1,25.1,0,0,0-9.321-10.1,26.261,26.261,0,0,0-12.384-3.73,28.78,28.78,0,0,0-6.32.307,23.915,23.915,0,0,0-5.333,1.493,19.351,19.351,0,0,0-7.4,5.321,18,18,0,0,0-4.216,10.2A20.19,20.19,0,0,0,206.785,9109.806Z" fill="#1c1c3d"/>
    <path id="Path_28" data-name="Path 28" d="M249.082,9093.527c.358.422.7.813,1.031,1.22a24.087,24.087,0,0,1,3.239,5.491c.51,1.165.947,2.357,1.348,3.563.033.1.036.229.183.25.105-.568.182-1.144.321-1.7a14.142,14.142,0,0,1,5.345-8.064,13.16,13.16,0,0,1,6.865-2.657,14.7,14.7,0,0,1,12.677,5.408c.067.087.148.164.222.245l.073-.046c-.07-.229-.135-.461-.211-.689a15.793,15.793,0,0,0-5.624-7.92,14.559,14.559,0,0,0-8.9-2.921,16.82,16.82,0,0,0-4.268.575,26.688,26.688,0,0,0-12.092,6.991A2.877,2.877,0,0,0,249.082,9093.527Z" fill="#1c1c3d"/>
    <path id="Path_29" data-name="Path 29" d="M261.177,9123.795c-.05-.055-.07-.092-.1-.105-.17-.077-.339-.154-.513-.22a16.1,16.1,0,0,1-6.384-4.437,27.566,27.566,0,0,1-3.428-4.844,54.841,54.841,0,0,1-3.47-7.528c-.67-1.744-1.319-3.5-2.021-5.229a22.452,22.452,0,0,0-3-5.3,14.782,14.782,0,0,0-7.438-5.25,18.222,18.222,0,0,0-3.955-.763,19.448,19.448,0,0,0-5.085.138,14.23,14.23,0,0,0-6.463,2.938c-.095.074-.177.166-.271.256.042.022.064.043.074.038.1-.048.2-.1.3-.15a11.211,11.211,0,0,1,2.144-.962,16.715,16.715,0,0,1,7.2-.68,12.338,12.338,0,0,1,6.42,2.709,15.011,15.011,0,0,1,2.626,2.755,22.561,22.561,0,0,1,3.089,5.825c.633,1.737,1.211,3.494,1.807,5.245a26.359,26.359,0,0,0,2.226,4.952A21.113,21.113,0,0,0,261.177,9123.795Z" fill="#1c1c3d"/>
    <path id="Path_30" data-name="Path 30" d="M274.762,9087.458a9.734,9.734,0,0,1,3.1,2.086,13.15,13.15,0,0,1,1.885,2.363,18.72,18.72,0,0,1,2.13,4.864,25.325,25.325,0,0,1,.95,6.979,21.548,21.548,0,0,1-.617,5.448,12.972,12.972,0,0,1-5.652,8.063c-.089.058-.169.127-.254.191a2.664,2.664,0,0,0,1.249-.1,15.075,15.075,0,0,0,7.733-4.4,14.235,14.235,0,0,0,3.366-14.3,16.651,16.651,0,0,0-5.349-7.871,15.461,15.461,0,0,0-7.825-3.519c-.2-.028-.41-.035-.614-.056s-.383-.039-.625-.063A1,1,0,0,0,274.762,9087.458Z" fill="#1c1c3d"/>
    <path id="Path_31" data-name="Path 31" d="M269.85,9151.742a4.8,4.8,0,0,0,2.916-1.431,1.8,1.8,0,0,1,.2-.151c.139.409-.037.814.125,1.167a18.337,18.337,0,0,0,3.223-.02c.07-.666.055-13.128-.019-13.59a7.93,7.93,0,0,0-1.321-.029,6.338,6.338,0,0,0-1.37.046c-.2.54-.071,1.1-.246,1.613-.051-.006-.075,0-.084-.011-.089-.094-.179-.187-.262-.287a4.694,4.694,0,0,0-2.741-1.63,7.37,7.37,0,0,0-2.953-.015,6.284,6.284,0,0,0-4.984,4.2,8.31,8.31,0,0,0,.029,5.931,6.3,6.3,0,0,0,3.842,3.841A7.512,7.512,0,0,0,269.85,9151.742Zm-4.416-8.819a3.7,3.7,0,0,1,3.314-2.618,4.058,4.058,0,0,1,1.449.069,3.775,3.775,0,0,1,2.9,3.013,11.543,11.543,0,0,1,.161,1.163,5.612,5.612,0,0,1-.372,1.813,3.775,3.775,0,0,1-3.731,2.444,4.255,4.255,0,0,1-1.27-.2,3.715,3.715,0,0,1-2.411-2.332A4.891,4.891,0,0,1,265.434,9142.923Z" fill="#1c1c3d"/>
    <path id="Path_32" data-name="Path 32" d="M220.162,9148.128a3.145,3.145,0,0,0,.128-.342,1.083,1.083,0,0,0-.176-.108c-.834-.272-1.669-.546-2.505-.811a1.344,1.344,0,0,0-.31-.029c-.047.073-.08.118-.107.166a3.34,3.34,0,0,1-2.273,1.676,5.465,5.465,0,0,1-1.782.092,3.8,3.8,0,0,1-3.333-2.825,2.112,2.112,0,0,1-.031-.348c.217-.008.4-.02.585-.02q1.29,0,2.58,0,3.477,0,6.955,0a1.407,1.407,0,0,0,.6-.052.719.719,0,0,0,.057-.171,8.775,8.775,0,0,0-.65-4.169,6.194,6.194,0,0,0-4.311-3.685,7.737,7.737,0,0,0-3.557-.068,6.741,6.741,0,0,0-4.936,3.852,7.383,7.383,0,0,0-.532,4.873,6.72,6.72,0,0,0,4.828,5.325,8.053,8.053,0,0,0,4.967-.074A6.326,6.326,0,0,0,220.162,9148.128Zm-10.269-5.312a3.712,3.712,0,0,1,3.271-2.512,4.2,4.2,0,0,1,1.718.137,3.351,3.351,0,0,1,2.311,2.384.443.443,0,0,1,0,.294,1.886,1.886,0,0,1-.264.036c-2.35,0-4.7,0-7.1,0A1.9,1.9,0,0,1,209.893,9142.816Z" fill="#1c1c3d"/>
    <path id="Path_33" data-name="Path 33" d="M253.244,9150.73c0-.991.008-1.982,0-2.974a.827.827,0,0,1,.262-.644c.464-.461.914-.937,1.371-1.405.075-.076.161-.141.272-.238.126.177.238.32.338.474q1.61,2.465,3.216,4.932c.111.169.23.332.355.512,1.218-.014,2.413.027,3.607-.028.027,0,.052-.042.12-.1-.422-.666-.871-1.326-1.31-1.991l-1.36-2.059c-.444-.67-.89-1.339-1.33-2.012s-.918-1.359-1.36-2.079c.142-.156.261-.295.389-.426q1.117-1.146,2.237-2.285c.771-.789,1.544-1.577,2.311-2.37.081-.084.234-.144.179-.312-.034-.017-.066-.045-.1-.045-1.16,0-2.319,0-3.478-.01a.626.626,0,0,0-.487.229c-.322.339-.648.674-.973,1.01q-1.93,2-3.864,3.987c-.1.1-.171.247-.38.235-.005-.214-.013-.415-.013-.617q0-4.515,0-9.031a5.5,5.5,0,0,0-.011-.561,1.515,1.515,0,0,0-1.314-1.333c-.632-.039-1.268-.009-1.951-.009a3.231,3.231,0,0,0-.041.339q0,9.621.01,19.241a.633.633,0,0,0,.057.172,1.459,1.459,0,0,0,.267.049q1.317.006,2.636,0a1.853,1.853,0,0,0,.327-.063C253.233,9151.1,253.244,9150.915,253.244,9150.73Z" fill="#1c1c3d"/>
    <path id="Path_34" data-name="Path 34" d="M243.928,9151.746a5.743,5.743,0,0,0,2.384-.77,4.246,4.246,0,0,0,2.184-4.076,3.309,3.309,0,0,0-2.088-3.067,4.988,4.988,0,0,0-1-.35c-.823-.17-1.654-.3-2.481-.448-.607-.109-1.216-.205-1.817-.339a2.774,2.774,0,0,1-.78-.3.991.991,0,0,1-.317-1.493,1.335,1.335,0,0,1,.652-.514,3.534,3.534,0,0,1,.863-.226,3.942,3.942,0,0,1,3.99,1.724c.058.089.129.169.19.249a16.541,16.541,0,0,0,2.31-1.8,1,1,0,0,0-.063-.152,5.76,5.76,0,0,0-3.482-2.652,8.406,8.406,0,0,0-4.053-.04,5.564,5.564,0,0,0-1.906.79,3.864,3.864,0,0,0-1.821,2.829,3.66,3.66,0,0,0,2.166,4.033,6,6,0,0,0,1.554.464c.96.148,1.921.292,2.881.44a4.563,4.563,0,0,1,1.338.4,1.164,1.164,0,0,1,.179,2,2.519,2.519,0,0,1-.965.43,4.661,4.661,0,0,1-2.112-.053,4.784,4.784,0,0,1-2.858-1.943,1.215,1.215,0,0,0-.373-.439l-2.562,1.8c.082.139.126.221.176.3a6.892,6.892,0,0,0,3.55,2.79A9.588,9.588,0,0,0,243.928,9151.746Z" fill="#1c1c3d"/>
    <path id="Path_35" data-name="Path 35" d="M229.447,9140.36a2.328,2.328,0,0,1,1.661,1.306,4.432,4.432,0,0,1,.252.682,5.306,5.306,0,0,1,.165,1.5c0,1.385,0,2.769,0,4.153,0,.954,0,1.908,0,2.862a.587.587,0,0,0,.127.5c.494.037,1.017.024,1.538.015a7.989,7.989,0,0,0,1.625-.058c.009-.177.023-.324.023-.471,0-2.73.006-5.463-.006-8.193a6.42,6.42,0,0,0-.133-1.335,4.742,4.742,0,0,0-3.613-3.872,6.638,6.638,0,0,0-2.173-.159,4.565,4.565,0,0,0-3.575,1.818c-.051.068-.1.169-.248.1-.02-.224-.036-.463-.064-.7-.03-.257-.072-.513-.109-.774a5.957,5.957,0,0,0-1.364-.048,5.278,5.278,0,0,0-1.411.064v8.1c0,1.628,0,3.255,0,4.883,0,.2-.059.412.075.593a27.771,27.771,0,0,0,2.917.046,1.866,1.866,0,0,0,.266-.055,1.782,1.782,0,0,0,.058-.683c0-2.188,0-4.378,0-6.565,0-.337.014-.674.04-1.009a3.468,3.468,0,0,1,.34-1.237,2.551,2.551,0,0,1,1.6-1.392A3.88,3.88,0,0,1,229.447,9140.36Z" fill="#1c1c3d"/>
    <path id="Path_36" data-name="Path 36" d="M290.227,9140.691a17.625,17.625,0,0,1,1.808-.04c.613-.016,1.228.028,1.832-.027a12.4,12.4,0,0,0,.081-2.644,1.545,1.545,0,0,0-.074-.279c-.207-.006-.391-.017-.576-.017-.879,0-1.758,0-2.636,0a3.862,3.862,0,0,1-.449-.054c-.009-.219-.023-.4-.023-.587,0-1.047,0-2.094,0-3.142a.689.689,0,0,0-.1-.518c-.5-.023-1.017-.016-1.537-.009a10.311,10.311,0,0,0-1.61.042,1.86,1.86,0,0,0-.058.688q0,5.7,0,11.391,0,.728.049,1.457a6.111,6.111,0,0,0,.43,1.906,3.661,3.661,0,0,0,2.131,2.105,4.894,4.894,0,0,0,1.578.363c.84.037,1.682.044,2.523.056a1.345,1.345,0,0,0,.3-.061,18.458,18.458,0,0,0,.007-2.92,1.86,1.86,0,0,0-.637-.056c-.486-.01-.974.012-1.457-.03a1.632,1.632,0,0,1-1.536-1.4,3.5,3.5,0,0,1-.076-.667q-.009-2.609,0-5.218A3.289,3.289,0,0,1,290.227,9140.691Z" fill="#1c1c3d"/>
    <path id="Path_37" data-name="Path 37" d="M241.334,9109.2c-.252-.716-.464-1.446-.694-2.171a2.7,2.7,0,0,0-.163.773,10.137,10.137,0,0,1-.642,2.776,13.5,13.5,0,0,1-6.488,7.293,14.655,14.655,0,0,1-6.728,1.705,9.854,9.854,0,0,0-.989.031,1.047,1.047,0,0,0,.616.238,20.01,20.01,0,0,0,6.789.486,20.418,20.418,0,0,0,5.538-1.342,22.042,22.042,0,0,0,5.631-3.318,1.734,1.734,0,0,0,.2-.213c-.421-.691-.842-1.331-1.21-2s-.705-1.361-1.01-2.062C241.869,9110.678,241.594,9109.941,241.334,9109.2Z" fill="#1c1c3d"/>
    <path id="Path_38" data-name="Path 38" d="M201.673,9151.342a22.23,22.23,0,0,0,3.19-.023c.01-.2.024-.362.024-.528.007-1.347.015-2.694.015-4.041q0-6.567,0-13.135c0-.168,0-.337-.009-.5a1.517,1.517,0,0,0-1.579-1.548c-.449-.016-.9-.006-1.347,0-.107,0-.214.021-.357.035-.007.25-.019.471-.019.69q0,6.989-.006,13.977c0,1.5,0,2.993,0,4.49C201.59,9150.949,201.527,9151.164,201.673,9151.342Z" fill="#1c1c3d"/>
    <path id="Path_39" data-name="Path 39" d="M284.916,9140.856a1.56,1.56,0,0,0,.648-.067,10.6,10.6,0,0,0,.022-1.1c0-.374.01-.748,0-1.122a3.946,3.946,0,0,0-.059-1.109,3.165,3.165,0,0,0-1.075.076,3.948,3.948,0,0,0-2.89,1.824c-.046.074-.075.18-.222.139-.074-.578-.092-1.171-.2-1.743a.758.758,0,0,0-.189-.059q-1.178,0-2.355,0a.792.792,0,0,0-.22.079c0,.236-.011.459-.011.682q0,5.89,0,11.781c0,.262-.005.523,0,.785a1.979,1.979,0,0,0,.055.308,22.89,22.89,0,0,0,3.222,0c.008-.234.02-.437.02-.639,0-1.852,0-3.7.005-5.554,0-.5.041-1.009.085-1.511a3.781,3.781,0,0,1,.314-1.187,2.466,2.466,0,0,1,1.63-1.429A4.517,4.517,0,0,1,284.916,9140.856Z" fill="#1c1c3d"/>
    <path id="Path_40" data-name="Path 40" d="M281.961,9161.426a3.63,3.63,0,0,0-2.419-2.855,4.374,4.374,0,0,0-2.649-.108,3.474,3.474,0,0,0-2.119,1.551c-.07.11-.127.229-.2.337a2.539,2.539,0,0,1-.2.229,4.575,4.575,0,0,0-1.064-1.408,3.678,3.678,0,0,0-1.555-.74,4.424,4.424,0,0,0-1.67-.062,3.931,3.931,0,0,0-1.6.636,5.526,5.526,0,0,0-1.184,1.37,5.941,5.941,0,0,1-.041-.866,4.458,4.458,0,0,0-.037-.861,4.1,4.1,0,0,0-1.192,0c-.065.473-.106,9.637-.053,10.651a2.453,2.453,0,0,0,.052.288,3.013,3.013,0,0,0,1.231-.048v-.636q0-2.944,0-5.891a4.406,4.406,0,0,1,.124-1.11,3.082,3.082,0,0,1,3.353-2.369,2.791,2.791,0,0,1,2.616,2.437,6.846,6.846,0,0,1,.063.894c.006,2.038,0,4.077.005,6.114a1.317,1.317,0,0,0,.073.629,3.666,3.666,0,0,0,1.188-.061v-.625c0-1.926-.005-3.852,0-5.778a5.953,5.953,0,0,1,.1-1.058,3.043,3.043,0,0,1,3.186-2.568,2.729,2.729,0,0,1,2.675,2.143,4.841,4.841,0,0,1,.126,1.223q0,3.059,0,6.115c0,.2-.064.413.111.623.165,0,.351,0,.537,0a1.475,1.475,0,0,0,.618-.062c.01-.16.026-.307.026-.453,0-2.226.005-4.45,0-6.676A4.952,4.952,0,0,0,281.961,9161.426Z" fill="#1c1c3d"/>
    <path id="Path_41" data-name="Path 41" d="M250.912,9155.323c0-.131.008-.264,0-.394a2.772,2.772,0,0,0-.071-.33,8.237,8.237,0,0,0-1.143.021,2.053,2.053,0,0,0-.04.245c-.006.168-.005.336-.005.5q0,2.5,0,5c0,.117.066.264-.087.347-.02-.008-.042-.009-.052-.02a.886.886,0,0,1-.1-.129,4.371,4.371,0,0,0-3.287-2.186,5.071,5.071,0,0,0-5.563,3.127,6.8,6.8,0,0,0-.067,5.041,4.892,4.892,0,0,0,3.412,3.141,5.72,5.72,0,0,0,2,.175,4.373,4.373,0,0,0,3.221-1.7c.127-.161.228-.342.343-.512.041-.062.084-.125.189-.065.07.653-.045,1.326.067,2.008a5.754,5.754,0,0,0,1.125.012,1.823,1.823,0,0,0,.063-.7Q250.914,9162.111,250.912,9155.323Zm-1.775,11.217a4.093,4.093,0,0,1-7.656-1.158,5.746,5.746,0,0,1,.1-2.882,3.913,3.913,0,0,1,2.077-2.582,4.158,4.158,0,0,1,3.782.027,3.947,3.947,0,0,1,2.1,2.827c.1.434.123.884.182,1.326A5.647,5.647,0,0,1,249.137,9166.54Z" fill="#1c1c3d"/>
    <path id="Path_42" data-name="Path 42" d="M260.222,9158.595a6.3,6.3,0,0,0-1.094-.228,5.173,5.173,0,0,0-5.636,3.307,6.562,6.562,0,0,0,.012,4.877,4.925,4.925,0,0,0,3.433,3.123,5.892,5.892,0,0,0,4-.28,4.694,4.694,0,0,0,2.558-2.617,1.968,1.968,0,0,0,.069-.379,5.393,5.393,0,0,0-1.235.012.594.594,0,0,0-.058.071c-.027.049-.052.1-.076.149a3.461,3.461,0,0,1-1.947,1.763,4.679,4.679,0,0,1-2.7.228,3.93,3.93,0,0,1-3.11-4.039c.755-.012,1.517,0,2.278-.006H263.7a1.547,1.547,0,0,0,.06-.232,7.256,7.256,0,0,0-.242-2.222A4.85,4.85,0,0,0,260.222,9158.595Zm2.108,4.775a.709.709,0,0,1-.177.056q-3.75,0-7.5,0a.63.63,0,0,1-.157-.048.929.929,0,0,1,0-.609,3.89,3.89,0,0,1,3.084-3.178,4.029,4.029,0,0,1,2.877.4,3.568,3.568,0,0,1,1.766,2.344A2.235,2.235,0,0,1,262.33,9163.37Z" fill="#1c1c3d"/>
    <path id="Path_43" data-name="Path 43" d="M245.415,9089.94c.706.583,1.371,1.216,2.053,1.827.15.136.293.279.464.442.18-.157.334-.288.483-.424a28.189,28.189,0,0,1,5.3-3.942c.9-.5,1.83-.936,2.747-1.4.077-.039.186-.05.183-.211-.258,0-.514,0-.771,0l-12.178.065c-1.5.008-2.993.013-4.49.025-.089,0-.223-.066-.276.11.215.081.423.161.633.239A20.091,20.091,0,0,1,245.415,9089.94Z" fill="#1c1c3d"/>
    <path id="Path_44" data-name="Path 44" d="M210.82,9158.69v.689c0,.226,0,.449,0,.674a3.034,3.034,0,0,1-.057.78c-.133-.212-.192-.306-.25-.4a4.294,4.294,0,0,0-2.426-1.885,5.129,5.129,0,0,0-2.823-.082,4.92,4.92,0,0,0-3.638,3.331,6.8,6.8,0,0,0-.092,4.357A5.188,5.188,0,0,0,208,9169.7a4.2,4.2,0,0,0,2.523-1.844c.074-.113.111-.269.3-.326.014.159.033.285.035.41,0,.43,0,.859.006,1.29a2.048,2.048,0,0,0,.069.364h1.09a.565.565,0,0,0,.065-.173q.009-5.272.01-10.545a1.119,1.119,0,0,0-.05-.229A2.762,2.762,0,0,0,210.82,9158.69Zm-.431,7.71a4.1,4.1,0,0,1-7.759-1.194,5.652,5.652,0,0,1,.221-2.983,3.8,3.8,0,0,1,3.113-2.664,3.982,3.982,0,0,1,4.727,3.115,14.247,14.247,0,0,1,.211,1.437A6.041,6.041,0,0,1,210.389,9166.4Z" fill="#1c1c3d"/>
    <path id="Path_45" data-name="Path 45" d="M237.936,9159.353c0-.131.007-.263,0-.393a3.322,3.322,0,0,0-.065-.334c-.209-.006-.394-.019-.579-.015a1.372,1.372,0,0,0-.622.068c-.007.176-.017.34-.02.5s0,.337,0,.506c0,.186.006.374,0,.56-.007.156.041.326-.054.47-.048-.014-.069-.014-.077-.024a2.14,2.14,0,0,1-.13-.181,4.381,4.381,0,0,0-3.255-2.136,5.075,5.075,0,0,0-5.607,3.221,6.888,6.888,0,0,0-.127,4.67,5.134,5.134,0,0,0,5.94,3.542,4.235,4.235,0,0,0,3.04-2c.065-.1.143-.19.271-.36.022.221.045.346.046.471.005.429,0,.859.006,1.289a2.945,2.945,0,0,0,.057.388h1.126a2.164,2.164,0,0,0,.056-.71Q237.938,9164.12,237.936,9159.353Zm-1.788,7.176a4.1,4.1,0,0,1-7.7-1.353,5.665,5.665,0,0,1,.22-2.929,3.8,3.8,0,0,1,2.877-2.635,4.009,4.009,0,0,1,4.965,3.037,9.636,9.636,0,0,1,.179,1.154A5.715,5.715,0,0,1,236.148,9166.528Z" fill="#1c1c3d"/>
    <path id="Path_46" data-name="Path 46" d="M202.914,9106.452c.523,0,1.046,0,1.569,0a1.5,1.5,0,0,0,.238-.047,5.821,5.821,0,0,0,.028-1.011,22.255,22.255,0,0,1,.428-4.511,16.81,16.81,0,0,1,2.419-6.047c.06-.09.108-.186.2-.343-.212.041-.357.058-.5.1-.79.223-1.579.452-2.368.679q-1.077.309-2.153.618a1.5,1.5,0,0,0-1.169,1.463q-.021.337-.021.673,0,3.365,0,6.729c0,.131.005.262,0,.393A1.306,1.306,0,0,0,202.914,9106.452Z" fill="#1c1c3d"/>
    <path id="Path_47" data-name="Path 47" d="M294.042,9098.011c0-.149,0-.3-.013-.447a1.6,1.6,0,0,0-1.367-1.73c-1.373-.427-2.749-.841-4.125-1.258a2.953,2.953,0,0,0-.327-.059c.07.138.1.218.15.289.152.236.312.467.462.7a12.241,12.241,0,0,1,1.93,6.523,22.457,22.457,0,0,1-.2,3.3c-.042.314-.066.632-.1.948a.334.334,0,0,0,.027.1c.032.019.064.052.1.052.765,0,1.532.032,2.3,0a1.2,1.2,0,0,0,1.111-1.021,3.552,3.552,0,0,0,.049-.669Q294.046,9101.375,294.042,9098.011Z" fill="#1c1c3d"/>
    <path id="Path_48" data-name="Path 48" d="M292.512,9158.644c-.083.2-.154.375-.221.549q-.94,2.432-1.879,4.862c-.5,1.29-.99,2.582-1.494,3.87-.048.123-.04.313-.279.331-.087-.216-.18-.437-.267-.663q-1.641-4.235-3.284-8.468a.9.9,0,0,0-.281-.5,5.4,5.4,0,0,0-1.286.039c.086.233.152.424.227.611q1.958,4.953,3.918,9.905c.117.295.221.595.332.893-.111.315-.215.635-.335.946-.135.349-.265.7-.432,1.034a2.055,2.055,0,0,1-1.644,1.208c-.24.03-.483.04-.725.061-.125.01-.25.021-.4.035v1.093a7.819,7.819,0,0,0,1.272.008,2.8,2.8,0,0,0,2.356-1.4,7.336,7.336,0,0,0,.51-1.058q1.515-3.772,3.014-7.55,1.038-2.6,2.071-5.21a1.023,1.023,0,0,0,.152-.616A8.029,8.029,0,0,0,292.512,9158.644Z" fill="#1c1c3d"/>
    <path id="Path_49" data-name="Path 49" d="M224.028,9166.469a3.685,3.685,0,0,1-1.419,1.693,4.379,4.379,0,0,1-6.269-1.618,5.028,5.028,0,0,1,.063-4.894,4.061,4.061,0,0,1,2.725-2.078,4.234,4.234,0,0,1,1.891-.043,3.94,3.94,0,0,1,2.932,2.2c.055.114.113.229.178.361a4.627,4.627,0,0,0,1.167-.409,1.98,1.98,0,0,0-.066-.236,4.788,4.788,0,0,0-1.337-1.843,5.54,5.54,0,0,0-4.107-1.325,5.381,5.381,0,0,0-4.844,3.355,6.144,6.144,0,0,0,.04,5.167,5.338,5.338,0,0,0,1.436,1.913,5.891,5.891,0,0,0,7.227.209,4.815,4.815,0,0,0,1.6-2.056c.047-.115.073-.24.115-.38a5.6,5.6,0,0,0-1.183-.382C224.111,9166.264,224.07,9166.367,224.028,9166.469Z" fill="#1c1c3d"/>
  </g>
</svg>
