<svg xmlns="http://www.w3.org/2000/svg" width="80.039" height="78.157" viewBox="0 0 80.039 78.157">
  <g id="Group_43" data-name="Group 43" transform="translate(-686.121 -9440.07)">
    <path id="Path_50" data-name="Path 50" d="M708.176,9478.621c-.188.895-4.024,19.139-4.214,20.039q2.67,5.13,5.338,10.26l5.288-9.714c-.063-.32-3.974-20.4-4.036-20.724" fill="none" stroke="#1c1c3d" stroke-linecap="round" stroke-linejoin="round" stroke-width="3"/>
    <g id="Group_42" data-name="Group 42">
      <path id="Path_51" data-name="Path 51" d="M734.193,9474.514l7.628-12.889,5.745,2.993q2.97-4.841,5.988-9.706,3.408-5.493,6.815-10.916" fill="none" stroke="#00dca6" stroke-linecap="round" stroke-linejoin="round" stroke-width="3"/>
      <path id="Path_52" data-name="Path 52" d="M749.346,9446.857l11.686-4.324q1.638,5.752,3.275,11.506" fill="none" stroke="#00dca6" stroke-linecap="round" stroke-linejoin="round" stroke-width="3"/>
    </g>
    <circle id="Ellipse_11" data-name="Ellipse 11" cx="14.054" cy="14.054" r="14.054" transform="translate(695.221 9441.57)" fill="none" stroke="#1c1c3d" stroke-linecap="round" stroke-linejoin="round" stroke-width="3"/>
    <path id="Path_53" data-name="Path 53" d="M687.621,9516.728V9486.97a10.189,10.189,0,0,1,10.189-10.188h22.93a10.189,10.189,0,0,1,10.189,10.188v29.758Z" fill="none" stroke="#1c1c3d" stroke-linecap="round" stroke-linejoin="round" stroke-width="3"/>
  </g>
</svg>
