<svg xmlns="http://www.w3.org/2000/svg" width="87.75" height="74.413" viewBox="0 0 87.75 74.413">
  <g id="Group_47" data-name="Group 47" transform="translate(-686.121 -9094.567)">
    <path id="Path_67" data-name="Path 67" d="M740.709,9144.329H715.2c-3.74,0-6.771-3.41-6.771-7.618v-33.026c0-4.207,3.031-7.617,6.771-7.617h50.4c3.74,0,6.771,3.41,6.771,7.617v33.026c0,4.208-3.031,7.618-6.771,7.618H753.344V9154.8Z" fill="none" stroke="#1c1c3d" stroke-linecap="round" stroke-linejoin="round" stroke-width="3"/>
    <path id="Path_68" data-name="Path 68" d="M707.607,9115.368H692.856a5.79,5.79,0,0,0-3.7,1.979,7.84,7.84,0,0,0-1.533,4.78v29.3c0,3.733,2.344,6.76,5.235,6.76h9.475v9.291l9.767-9.291h19.718c2.891,0,5.235-3.026,5.235-6.76v-6.413" fill="none" stroke="#1c1c3d" stroke-linecap="round" stroke-linejoin="round" stroke-width="3"/>
    <path id="Path_69" data-name="Path 69" d="M727.34,9122.189l6.366,6.545,22.08-17.538" fill="none" stroke="#00dca6" stroke-linecap="round" stroke-linejoin="round" stroke-width="3"/>
  </g>
</svg>
