<svg xmlns="http://www.w3.org/2000/svg" width="87.879" height="93.781" viewBox="0 0 87.879 93.781">
  <g id="Group_46" data-name="Group 46" transform="translate(-199.714 -9982.37)">
    <g id="Group_44" data-name="Group 44">
      <path id="Path_54" data-name="Path 54" d="M249.766,9987.2c20.254,3.41,35.363,20.425,36.278,40.249.979,21.22-14.543,40.536-36.278,44.245l3.782,2.384" fill="none" stroke="#00dca6" stroke-linecap="round" stroke-linejoin="round" stroke-width="3"/>
      <path id="Path_55" data-name="Path 55" d="M237.541,10071.671c-20.255-3.41-35.363-20.426-36.278-40.249-.979-21.22,14.543-40.536,36.278-44.245l-4.345-2.738" fill="none" stroke="#00dca6" stroke-linecap="round" stroke-linejoin="round" stroke-width="3"/>
    </g>
    <g id="Group_45" data-name="Group 45">
      <path id="Path_56" data-name="Path 56" d="M267.022,10025.324c3.136,3.12,2.058,7.609,1.851,8.391a10.063,10.063,0,0,1-4.917,6.084c1.89,4.047.786,8.565-2.22,10.689-3.033,2.142-6.742.955-7.184.8a7.353,7.353,0,0,1-3.994,3.376,7.7,7.7,0,0,1-6.642-1.093" fill="none" stroke="#1c1c3d" stroke-linecap="round" stroke-linejoin="round" stroke-width="3"/>
      <path id="Path_57" data-name="Path 57" d="M257.07,10038.722a5.138,5.138,0,0,1,3.238-.893,5.265,5.265,0,0,1,3.648,1.97" fill="none" stroke="#1c1c3d" stroke-linecap="round" stroke-linejoin="round" stroke-width="3"/>
      <path id="Path_58" data-name="Path 58" d="M260.613,10011.035c-.043-.279-.915-5.362-5.4-7.22a9.508,9.508,0,0,0-11.2,3.636" fill="none" stroke="#1c1c3d" stroke-linecap="round" stroke-linejoin="round" stroke-width="3"/>
      <path id="Path_59" data-name="Path 59" d="M243.916,10053.576v-45.237a8.835,8.835,0,0,0-16.888,3.017,8.579,8.579,0,0,0-8.6,5.881,8.49,8.49,0,0,0,2.413,8.595,8.469,8.469,0,0,0,3.166,13.872,9.432,9.432,0,0,0,1.745,10,9.317,9.317,0,0,0,6.624,2.665,8.162,8.162,0,0,0,11.535,1.206Z" fill="none" stroke="#1c1c3d" stroke-linecap="round" stroke-linejoin="round" stroke-width="3"/>
      <path id="Path_60" data-name="Path 60" d="M253.763,10030.044c.1-.257,2.054-5.176,7.008-6.021a9.131,9.131,0,0,1,6.251,1.3,9.371,9.371,0,0,0,1.619-7.914,9.135,9.135,0,0,0-8.028-6.375,9.05,9.05,0,0,0-5.4-7.22c-3.913-1.531-8.842.257-11.293,4.523" fill="none" stroke="#1c1c3d" stroke-linecap="round" stroke-linejoin="round" stroke-width="3"/>
      <path id="Path_61" data-name="Path 61" d="M251.223,10046.248a5.67,5.67,0,0,0,3.329,5.045" fill="none" stroke="#1c1c3d" stroke-linecap="round" stroke-linejoin="round" stroke-width="3"/>
      <path id="Path_62" data-name="Path 62" d="M227.028,10011.355a8.138,8.138,0,0,1,5.723,2.718,7.958,7.958,0,0,1,1.876,4.8" fill="none" stroke="#1c1c3d" stroke-linecap="round" stroke-linejoin="round" stroke-width="3"/>
      <path id="Path_63" data-name="Path 63" d="M220.846,10025.831a8.071,8.071,0,0,0,3.8,1.165,8.663,8.663,0,0,0,6.234-2.493" fill="none" stroke="#1c1c3d" stroke-linecap="round" stroke-linejoin="round" stroke-width="3"/>
      <path id="Path_64" data-name="Path 64" d="M232.381,10052.369a4.031,4.031,0,0,1,4.074-6.086" fill="none" stroke="#1c1c3d" stroke-linecap="round" stroke-linejoin="round" stroke-width="3"/>
      <path id="Path_65" data-name="Path 65" d="M232.52,10036.33a7.354,7.354,0,0,1,11.488,3.843" fill="none" stroke="#1c1c3d" stroke-linecap="round" stroke-linejoin="round" stroke-width="3"/>
      <path id="Path_66" data-name="Path 66" d="M244.008,10019.373a8.546,8.546,0,0,0,7.164-1.555,7.724,7.724,0,0,0,2.333-3.557" fill="none" stroke="#1c1c3d" stroke-linecap="round" stroke-linejoin="round" stroke-width="3"/>
    </g>
  </g>
</svg>
