<svg xmlns="http://www.w3.org/2000/svg" width="100.911" height="85.573" viewBox="0 0 100.911 85.573">
  <g id="Group_39" data-name="Group 39" transform="translate(-123.678 -2873.741)">
    <path id="Path_23" data-name="Path 23" d="M164.543,2948.017c-2.588.033-30.314,0-35.4,0a4,4,0,0,1-2.8-1.19,4.094,4.094,0,0,1-1.162-2.871V2879.3a4.014,4.014,0,0,1,3.966-4.06h89.979a4.014,4.014,0,0,1,3.966,4.06v64.655a4.038,4.038,0,0,1-3.966,4.061c-11.866.187-16.174.232-33.927.179" fill="none" stroke="#1c1c3d" stroke-linecap="round" stroke-linejoin="round" stroke-width="3"/>
    <path id="Path_24" data-name="Path 24" d="M166.883,2936.341H143.964a8.726,8.726,0,0,0-2.124-5.254,8.336,8.336,0,0,0-4.954-2.717v-32.792a9.393,9.393,0,0,0,4.954-3.08,9.723,9.723,0,0,0,2.124-4.71H204.3a7.659,7.659,0,0,0,1.769,4.891,7.4,7.4,0,0,0,5.309,2.537v33.878a8.367,8.367,0,0,0-4.778,2.174,8.778,8.778,0,0,0-2.654,5.073H181.357" fill="none" stroke="#1c1c3d" stroke-linecap="round" stroke-linejoin="round" stroke-width="3"/>
    <line id="Line_25" data-name="Line 25" x2="40.117" transform="translate(154.075 2899.641)" fill="none" stroke="#1c1c3d" stroke-linecap="round" stroke-linejoin="round" stroke-width="3"/>
    <ellipse id="Ellipse_10" data-name="Ellipse 10" cx="10.54" cy="10.791" rx="10.54" ry="10.791" transform="translate(163.594 2907.721)" fill="none" stroke="#00dca6" stroke-linecap="round" stroke-linejoin="round" stroke-width="3"/>
    <g id="Group_38" data-name="Group 38">
      <path id="Path_25" data-name="Path 25" d="M179.311,2929.3l5.2,28.51-10.4-7.182" fill="none" stroke="#00dca6" stroke-linecap="round" stroke-linejoin="round" stroke-width="3"/>
      <path id="Path_26" data-name="Path 26" d="M170.106,2928.485l-6.349,29.328,10.4-7.182" fill="none" stroke="#00dca6" stroke-linecap="round" stroke-linejoin="round" stroke-width="3"/>
    </g>
  </g>
</svg>
