<svg xmlns="http://www.w3.org/2000/svg" width="98.577" height="112.505" viewBox="0 0 98.577 112.505">
  <g id="Group_37" data-name="Group 37" transform="translate(-123.678 -2649.936)">
    <path id="Path_20" class="path" data-name="Path 20" d="M160.319,2727.157c-7.5-3.164-19.2-12.511-19.291-28.5s13.564-31.939,31.939-31.939a31.94,31.94,0,0,1,31.939,31.939c0,13.6-9.3,25.1-20,29.635" fill="none" stroke="#00dca6" stroke-linecap="round" stroke-linejoin="round" stroke-width="3"/>
    <path id="Path_21" data-name="Path 21" d="M154.042,2741.874c-11.227-4.734-28.729-18.72-28.863-42.65s20.295-47.788,47.788-47.788a47.788,47.788,0,0,1,47.788,47.788c0,20.349-13.921,37.559-29.93,44.34" fill="none" stroke="#1c1c3d" stroke-linecap="round" stroke-linejoin="round" stroke-width="3"/>
    <g id="Group_36" data-name="Group 36">
      <path id="Path_22" data-name="Path 22" d="M172.8,2684.631l-6.056,19.177v53a6.752,6.752,0,0,0,12.448,0v-53.669Z" fill="none" stroke="#1c1c3d" stroke-linecap="round" stroke-linejoin="round" stroke-width="3"/>
      <line id="Line_23" data-name="Line 23" x2="12.448" transform="translate(166.743 2703.808)" fill="none" stroke="#1c1c3d" stroke-linecap="round" stroke-linejoin="round" stroke-width="3"/>
      <line id="Line_24" data-name="Line 24" x2="11.255" transform="translate(166.743 2736.887)" fill="none" stroke="#1c1c3d" stroke-linecap="round" stroke-linejoin="round" stroke-width="3"/>
    </g>
  </g>
</svg>
