<svg xmlns="http://www.w3.org/2000/svg" width="63.678" height="63.677" viewBox="0 0 63.678 63.677">
  <path id="Path_172" data-name="Path 172" d="M1452.492,12623.06h52.524c.377.082.758.147,1.13.247a5.734,5.734,0,0,1,4.416,5.866q.015,25.761,0,51.523a5.844,5.844,0,0,1-6.28,6.038q-24.953,0-49.9,0c-.765,0-1.53-.052-2.293-.1a5.629,5.629,0,0,1-5-4.488c-.071-.316-.126-.636-.189-.954v-52.523a2.593,2.593,0,0,0,.157-.517,5.688,5.688,0,0,1,4.556-4.908C1451.9,12623.191,1452.2,12623.12,1452.492,12623.06Zm29.42,27.331c0-.848,0-1.507,0-2.167a1.659,1.659,0,0,0-1.811-1.812q-3.484-.006-6.969,0a1.7,1.7,0,0,0-1.884,1.879q0,14.81,0,29.62a1.755,1.755,0,0,0,1.97,1.943q3.36.009,6.721,0a1.744,1.744,0,0,0,1.974-1.986q0-7.56,0-15.121a10.572,10.572,0,0,1,1.046-4.62,5.088,5.088,0,0,1,5.291-3.027,4.654,4.654,0,0,1,4.4,3.828,15.642,15.642,0,0,1,.468,3.554c.049,5.144.018,10.287.02,15.432a1.7,1.7,0,0,0,1.935,1.941q3.486,0,6.97,0a1.776,1.776,0,0,0,1.995-1.993c0-5.331.016-10.662-.035-15.992a29.176,29.176,0,0,0-.811-7.324c-1.077-4.029-3.268-7.042-7.5-8.161a16.344,16.344,0,0,0-7.63-.109A9.621,9.621,0,0,0,1481.912,12650.391Zm-25.859,12.753q0,7.308,0,14.616a1.829,1.829,0,0,0,2.087,2.1q3.109,0,6.22,0c1.729,0,2.353-.626,2.353-2.36q0-9.237,0-18.473,0-5.257,0-10.513a1.842,1.842,0,0,0-2.09-2.1q-3.266,0-6.531,0c-1.394,0-2.038.648-2.038,2.054Q1456.052,12655.805,1456.053,12663.144Zm12.168-26.279a6.866,6.866,0,1,0-6.885,6.885A6.9,6.9,0,0,0,1468.221,12636.864Z" transform="translate(-1446.891 -12623.06)" fill="#1c1c3d"/>
</svg>
