<svg xmlns="http://www.w3.org/2000/svg" width="398.465" height="38.069" viewBox="0 0 398.465 38.069">
  <g id="Group_56" data-name="Group 56" transform="translate(-101.703 -50)">
    <g id="Group_54" data-name="Group 54">
      <g id="Group_52" data-name="Group 52">
        <path id="Path_70" data-name="Path 70" d="M227.153,58.933c-2.923,0-5.244,1.117-6.49,3.309l-.258-2.665h-4.169V79.993h4.943V68.6c0-2.923,1.332-5.2,4.727-5.2,3.181,0,4.341,2.278,4.341,5.2v11.39h4.943V67.1C235.19,62.543,232.482,58.933,227.153,58.933Z" fill="#010042"/>
        <path id="Path_71" data-name="Path 71" d="M203.6,58.933a10.852,10.852,0,1,0,.086,21.7c4.684,0,8.252-2.32,9.842-6.06l-4.513-1.461c-.859,1.977-2.794,3.052-5.286,3.052a5.8,5.8,0,0,1-6.061-4.857H213.83C214.432,64,210.22,58.933,203.6,58.933Zm-5.846,8.81A5.754,5.754,0,0,1,203.6,63.4a5.172,5.172,0,0,1,5.372,4.341Z" fill="#010042"/>
        <path id="Path_72" data-name="Path 72" d="M188.109,50.359h-2.558l0,29.634h4.943l0-27.25A2.324,2.324,0,0,0,188.109,50.359Z" fill="#010042"/>
        <path id="Path_73" data-name="Path 73" d="M276.751,59.577h-5.974l-8.123,8.381,0-15.206a2.345,2.345,0,0,0-2.262-2.3h-2.681l0,29.545h4.943V74.019l2.837-2.923,5.8,8.9h5.716l-8.166-12.336Z" fill="#010042"/>
        <path id="Path_74" data-name="Path 74" d="M304.6,62.672l-.3-3.1h-4.169V79.993h4.942V70.107c0-4.083,1.505-5.845,4.986-5.845h.86V59.19C307.782,59.19,305.59,60.437,304.6,62.672Z" fill="#010042"/>
        <path id="Path_75" data-name="Path 75" d="M323.383,63.961V59.577H317.8V53.114h-4.943v18.67c0,5.329,2.02,8.209,7.866,8.209h2.664V75.48H320.8a2.732,2.732,0,0,1-3.009-3.052V63.961Z" fill="#010042"/>
        <path id="Path_76" data-name="Path 76" d="M292.7,62.371c-1.461-2.321-3.825-3.438-6.876-3.438-6.06,0-10.358,4.341-10.358,10.83,0,6.448,4.255,10.874,10.358,10.874a7.745,7.745,0,0,0,6.361-2.707v2.063h4.942V59.577h-4.169Zm-6.146,13.8c-3.61,0-6.1-2.579-6.1-6.4s2.493-6.361,6.1-6.361c3.4,0,5.932,2.536,5.932,6.361S289.946,76.168,286.55,76.168Z" fill="#010042"/>
        <path id="Path_77" data-name="Path 77" d="M249.588,67.915l-3.825-.6c-2.278-.387-3.181-.9-3.181-2.02,0-1.075,1.032-2.106,3.353-2.106a5.683,5.683,0,0,1,5.458,3.094l3.525-2.708a9.055,9.055,0,0,0-8.382-4.641c-5.329,0-8.639,2.707-8.639,6.533,0,3.18,1.892,5.372,6.018,5.974l3.739.558c2.751.43,3.137,1.29,3.137,2.235,0,1.2-1.332,2.149-3.438,2.149a7.316,7.316,0,0,1-6.619-3.825l-3.911,2.751c2.192,3.7,5.845,5.329,10.186,5.329,5.588,0,8.553-3.094,8.553-6.919C255.562,70.752,253.972,68.6,249.588,67.915Z" fill="#010042"/>
      </g>
      <g id="Group_53" data-name="Group 53">
        <path id="Path_78" data-name="Path 78" d="M120.575,76.674c6.215-.129,11.168-4.4,11.4-11.039a22.668,22.668,0,0,0,3.14,7.252c-3.723,2.881-7.251,4.175-10.942,4.175a16.3,16.3,0,0,1-3.593-.388" fill="#010042"/>
        <path id="Path_79" data-name="Path 79" d="M173.146,65.085a.96.96,0,0,1-1,1.036h-1.424l.065-.906a11.9,11.9,0,0,0-2.04-8.255l3.464,1c.745.259.939.615.939,1.587Z" fill="#010042"/>
        <path id="Path_80" data-name="Path 80" d="M101.7,59.55c0-.972.194-1.36.906-1.587l3.626-1a13.66,13.66,0,0,0-2.331,8.222l.065.939h-1.295a.953.953,0,0,1-.971-1.036Z" fill="#010042"/>
        <path id="Path_81" data-name="Path 81" d="M114.23,56.6a9.6,9.6,0,0,1,8-3.529c6.28,0,11.3,3.82,13.725,10.2l1.295,3.3c3.14,8.255,7.219,12.366,11.978,13.887-7.413-1.1-13.24-5.535-15.7-12.819l-1.1-3.334c-2.363-6.83-6.054-9.938-11.88-9.938A10.048,10.048,0,0,0,114.23,56.6" fill="#010042"/>
        <path id="Path_82" data-name="Path 82" d="M157.349,50.777c7.38.971,12.657,6.6,12.657,13.305a11.091,11.091,0,0,1-10.391,11.1c4.014-2.46,5.535-5.762,5.535-10.262,0-6.442-2.978-12.139-7.8-14.146" fill="#010042"/>
        <path id="Path_83" data-name="Path 83" d="M144.886,50.421a19.62,19.62,0,0,0-7.381,5.179,18.33,18.33,0,0,0-7.931-5.147Z" fill="#010042"/>
        <path id="Path_84" data-name="Path 84" d="M138.023,56.28C141.94,52.2,146.8,50,151.069,50a13.051,13.051,0,0,1,12.43,9.711,10.972,10.972,0,0,0-9.549-5.341,11.241,11.241,0,0,0-11.1,11.168,21.441,21.441,0,0,0-4.823-9.258" fill="#010042"/>
        <path id="Path_85" data-name="Path 85" d="M104.81,65.182c0-8.967,6.9-15.182,16.9-15.182,9.193,0,16.445,5.018,19.552,13.531l.907,2.655c2.589,7.121,6.83,10.52,13.078,10.52,4.661,0,10.067-1.586,12.851-4.791-2.363,5.342-7.542,8.417-13.855,8.417-7.251,0-12.56-4.791-15.7-13.078l-1.424-3.723c-2.849-7.38-8-11.427-14.7-11.427-7.575,0-12.754,5.374-12.754,12.949,0,7.736,5.7,12.948,14.243,12.948a17.051,17.051,0,0,0,7.64-1.715A15.434,15.434,0,0,1,120.7,80.332c-9.161,0-15.894-6.41-15.894-15.15" fill="#010042"/>
      </g>
    </g>
    <g id="Group_55" data-name="Group 55">
      <path id="Path_86" data-name="Path 86" d="M380.382,69.53c0-6.1,3.867-10.389,9.516-10.389a7.886,7.886,0,0,1,7.431,4.474h.228V59.634h2.274V79.349h-2.2v-3.9H397.4a7.91,7.91,0,0,1-7.355,4.4C384.249,79.842,380.382,75.558,380.382,69.53Zm17.25,0c0-5.043-3.109-8.3-7.469-8.3-4.473,0-7.469,3.412-7.469,8.3,0,4.966,3,8.265,7.507,8.265C394.865,77.795,397.632,74.041,397.632,69.53Z" fill="#010042"/>
      <path id="Path_87" data-name="Path 87" d="M403.661,69.53c0-6.1,3.867-10.389,9.517-10.389a7.887,7.887,0,0,1,7.431,4.474h.227V52.464h2.275V79.349h-2.2v-3.9h-.228a7.908,7.908,0,0,1-7.355,4.4C407.528,79.842,403.661,75.558,403.661,69.53Zm17.251,0c0-5.043-3.109-8.3-7.469-8.3-4.474,0-7.469,3.412-7.469,8.3,0,4.966,2.995,8.265,7.507,8.265C418.144,77.795,420.912,74.041,420.912,69.53Z" fill="#010042"/>
      <path id="Path_88" data-name="Path 88" d="M426.941,69.492c0-6.294,4.246-10.351,9.592-10.351,5.991,0,9.554,4.322,9.554,10.009v1.176H429.33c.113,4.284,2.957,7.431,7.431,7.431,3.146,0,5.876-1.668,6.748-4.209H445.9c-1.1,3.678-4.55,6.294-9.175,6.294C430.808,79.842,426.941,75.406,426.941,69.492Zm16.72-1.214c-.19-4.511-3.147-7.051-7.128-7.051a7.175,7.175,0,0,0-7.165,7.051Z" fill="#010042"/>
      <path id="Path_89" data-name="Path 89" d="M450.1,59.634h2.275v3.185h.228a6.29,6.29,0,0,1,5.99-3.678,6.573,6.573,0,0,1,6.445,4.019h.266a6.569,6.569,0,0,1,6.369-4.019,6.885,6.885,0,0,1,7.2,7.28V79.349h-2.275V67.141c0-3.64-2.01-5.877-5.308-5.877-3.185,0-5.611,2.427-5.611,6.105v11.98h-2.275V66.724a5.205,5.205,0,0,0-5.422-5.46,5.7,5.7,0,0,0-5.611,6.029V79.349H450.1Z" fill="#010042"/>
      <path id="Path_90" data-name="Path 90" d="M483.144,85.984h1.176a4.042,4.042,0,0,0,4.132-2.881l1.138-2.882-8.152-20.587h2.5l6.748,17.4h.228l6.71-17.4h2.541L490.5,83.9c-1.024,2.616-2.578,4.17-5.763,4.17h-1.593Z" fill="#010042"/>
      <path id="Path_91" data-name="Path 91" d="M334.132,69.53c0-6.1,3.867-10.389,9.516-10.389a7.886,7.886,0,0,1,7.431,4.474h.228V59.634h2.275V79.349h-2.2v-3.9h-.228a7.908,7.908,0,0,1-7.355,4.4C338,79.842,334.132,75.558,334.132,69.53Zm17.251,0c0-5.043-3.109-8.3-7.469-8.3-4.474,0-7.469,3.412-7.469,8.3,0,4.966,2.995,8.265,7.507,8.265C348.615,77.795,351.383,74.041,351.383,69.53Z" fill="#010042"/>
      <path id="Path_92" data-name="Path 92" d="M375.2,73.028h-.013a7.143,7.143,0,0,1-7.043,4.992c-4.682,0-8.011-3.638-8.011-8.437,0-4.682,3.212-8.434,7.934-8.434a7.213,7.213,0,0,1,7.017,4.781l2.2-.706a9.606,9.606,0,0,0-9.252-6.2,10.207,10.207,0,0,0-10.293,10.562c0,5.96,4.294,10.563,10.332,10.563a9.533,9.533,0,0,0,9.3-6.422Z" fill="#010042"/>
    </g>
  </g>
</svg>
