<svg xmlns="http://www.w3.org/2000/svg" width="367.446" height="35.105" viewBox="0 0 367.446 35.105">
  <g id="Group_116" data-name="Group 116" transform="translate(-570.267 -16277.742)">
    <g id="Group_115" data-name="Group 115">
      <g id="Group_113" data-name="Group 113">
        <g id="Group_111" data-name="Group 111">
          <path id="Path_134" data-name="Path 134" d="M685.951,16285.979c-2.7,0-4.835,1.031-5.984,3.053l-.238-2.457h-3.845v18.826h4.558v-10.5c0-2.7,1.229-4.8,4.36-4.8,2.933,0,4,2.1,4,4.8v10.5h4.558v-11.891C693.363,16289.309,690.866,16285.979,685.951,16285.979Z" fill="#fff"/>
          <path id="Path_135" data-name="Path 135" d="M664.233,16285.979a10.009,10.009,0,1,0,.079,20.017c4.32,0,7.61-2.142,9.076-5.589l-4.161-1.348a4.957,4.957,0,0,1-4.875,2.814,5.352,5.352,0,0,1-5.589-4.479h14.9C674.22,16290.656,670.336,16285.979,664.233,16285.979Zm-5.391,8.125a5.306,5.306,0,0,1,5.391-4,4.77,4.77,0,0,1,4.954,4Z" fill="#fff"/>
          <path id="Path_136" data-name="Path 136" d="M649.947,16278.073h-2.359l0,27.327h4.558l0-25.128A2.143,2.143,0,0,0,649.947,16278.073Z" fill="#fff"/>
          <path id="Path_137" data-name="Path 137" d="M731.689,16286.574H726.18l-7.491,7.729,0-14.022a2.163,2.163,0,0,0-2.086-2.125h-2.472l0,27.245h4.558v-5.51l2.616-2.694,5.35,8.2h5.272l-7.531-11.375Z" fill="#fff"/>
          <path id="Path_138" data-name="Path 138" d="M757.371,16289.428l-.277-2.854h-3.845v18.826h4.558v-9.116c0-3.766,1.387-5.391,4.6-5.391h.792v-4.677C760.3,16286.217,758.283,16287.367,757.371,16289.428Z" fill="#fff"/>
          <path id="Path_139" data-name="Path 139" d="M774.691,16290.617v-4.043h-5.153v-5.96h-4.557v17.216c0,4.915,1.862,7.57,7.253,7.57h2.457v-4.161h-2.378a2.52,2.52,0,0,1-2.775-2.814v-7.808Z" fill="#fff"/>
          <path id="Path_140" data-name="Path 140" d="M746.393,16289.15a7,7,0,0,0-6.342-3.172c-5.588,0-9.551,4-9.551,9.988,0,5.945,3.923,10.028,9.551,10.028a7.142,7.142,0,0,0,5.866-2.5v1.9h4.558v-18.826h-3.844Zm-5.668,12.723c-3.329,0-5.628-2.378-5.628-5.906s2.3-5.866,5.628-5.866c3.131,0,5.47,2.34,5.47,5.866S743.856,16301.873,740.725,16301.873Z" fill="#fff"/>
          <path id="Path_141" data-name="Path 141" d="M706.64,16294.263l-3.527-.555c-2.1-.357-2.933-.832-2.933-1.863,0-.991.951-1.941,3.091-1.941a5.242,5.242,0,0,1,5.034,2.854l3.25-2.5a8.347,8.347,0,0,0-7.729-4.281c-4.915,0-7.966,2.5-7.966,6.025,0,2.933,1.744,4.954,5.548,5.509l3.449.516c2.536.4,2.893,1.188,2.893,2.061,0,1.11-1.229,1.982-3.171,1.982a6.747,6.747,0,0,1-6.1-3.528l-3.607,2.537c2.021,3.409,5.39,4.915,9.393,4.915,5.153,0,7.887-2.854,7.887-6.381C712.149,16296.879,710.683,16294.9,706.64,16294.263Z" fill="#fff"/>
        </g>
        <g id="Group_112" data-name="Group 112">
          <path id="Path_142" data-name="Path 142" d="M587.67,16302.34c5.732-.12,10.3-4.06,10.508-10.179a20.9,20.9,0,0,0,2.9,6.686c-3.433,2.657-6.686,3.852-10.089,3.852a15,15,0,0,1-3.314-.358" fill="#fff"/>
          <path id="Path_143" data-name="Path 143" d="M636.149,16291.653a.886.886,0,0,1-.926.955H633.91l.06-.836a10.983,10.983,0,0,0-1.881-7.612l3.194.926c.687.239.866.567.866,1.462Z" fill="#fff"/>
          <path id="Path_144" data-name="Path 144" d="M570.267,16286.548c0-.895.179-1.253.836-1.462l3.343-.926a12.6,12.6,0,0,0-2.149,7.583l.059.865h-1.194a.879.879,0,0,1-.895-.955Z" fill="#fff"/>
          <path id="Path_145" data-name="Path 145" d="M581.819,16283.832a8.852,8.852,0,0,1,7.374-3.254c5.791,0,10.418,3.522,12.657,9.4l1.194,3.045c2.9,7.611,6.656,11.4,11.045,12.806-6.836-1.015-12.21-5.1-14.478-11.821l-1.015-3.074c-2.179-6.3-5.582-9.164-10.956-9.164a9.266,9.266,0,0,0-5.821,2.06" fill="#fff"/>
          <path id="Path_146" data-name="Path 146" d="M621.581,16278.459c6.806.895,11.672,6.089,11.672,12.269a10.228,10.228,0,0,1-9.582,10.239c3.7-2.269,5.1-5.313,5.1-9.463,0-5.94-2.746-11.194-7.194-13.045" fill="#fff"/>
          <path id="Path_147" data-name="Path 147" d="M610.088,16278.13a18.1,18.1,0,0,0-6.806,4.777,16.9,16.9,0,0,0-7.313-4.747Z" fill="#fff"/>
          <path id="Path_148" data-name="Path 148" d="M603.76,16283.533c3.612-3.761,8.09-5.791,12.03-5.791a12.035,12.035,0,0,1,11.463,8.956,10.119,10.119,0,0,0-8.806-4.926,10.365,10.365,0,0,0-10.239,10.3,19.794,19.794,0,0,0-4.448-8.538" fill="#fff"/>
          <path id="Path_149" data-name="Path 149" d="M573.133,16291.743c0-8.27,6.358-14,15.582-14,8.478,0,15.164,4.627,18.03,12.478l.836,2.448c2.388,6.567,6.3,9.7,12.06,9.7,4.3,0,9.284-1.463,11.851-4.418-2.179,4.925-6.955,7.761-12.776,7.761-6.687,0-11.583-4.418-14.478-12.06l-1.314-3.434c-2.627-6.806-7.373-10.537-13.552-10.537-6.986,0-11.762,4.955-11.762,11.94,0,7.135,5.254,11.941,13.135,11.941a15.738,15.738,0,0,0,7.045-1.582,14.231,14.231,0,0,1-10,3.73c-8.448,0-14.657-5.911-14.657-13.97" fill="#fff"/>
        </g>
      </g>
      <g id="Group_114" data-name="Group 114">
        <path id="Path_150" data-name="Path 150" d="M827.252,16295.752c0-5.629,3.566-9.58,8.776-9.58a7.272,7.272,0,0,1,6.852,4.125h.21v-3.671h2.1v18.181H843.16v-3.6h-.21a7.293,7.293,0,0,1-6.782,4.055C830.818,16305.261,827.252,16301.31,827.252,16295.752Zm15.908,0c0-4.65-2.867-7.657-6.888-7.657-4.125,0-6.887,3.146-6.887,7.657,0,4.58,2.762,7.621,6.923,7.621C840.608,16303.373,843.16,16299.912,843.16,16295.752Z" fill="#fff"/>
        <path id="Path_151" data-name="Path 151" d="M848.72,16295.752c0-5.629,3.566-9.58,8.775-9.58a7.274,7.274,0,0,1,6.853,4.125h.209v-10.283h2.1v24.793h-2.028v-3.6h-.209a7.3,7.3,0,0,1-6.783,4.055C852.286,16305.261,848.72,16301.31,848.72,16295.752Zm15.907,0c0-4.65-2.866-7.657-6.887-7.657-4.126,0-6.888,3.146-6.888,7.657,0,4.58,2.762,7.621,6.923,7.621C862.075,16303.373,864.627,16299.912,864.627,16295.752Z" fill="#fff"/>
        <path id="Path_152" data-name="Path 152" d="M870.187,16295.716c0-5.8,3.916-9.544,8.846-9.544,5.524,0,8.81,3.986,8.81,9.23v1.084H872.39c.1,3.949,2.727,6.852,6.852,6.852,2.9,0,5.42-1.538,6.224-3.88h2.2c-1.014,3.391-4.2,5.8-8.461,5.8C873.753,16305.261,870.187,16301.171,870.187,16295.716Zm15.419-1.118c-.175-4.161-2.9-6.5-6.573-6.5a6.617,6.617,0,0,0-6.608,6.5Z" fill="#fff"/>
        <path id="Path_153" data-name="Path 153" d="M891.547,16286.626h2.1v2.938h.21a5.8,5.8,0,0,1,5.524-3.392,6.06,6.06,0,0,1,5.943,3.706h.245a6.058,6.058,0,0,1,5.874-3.706,6.349,6.349,0,0,1,6.643,6.713v11.922h-2.1v-11.258c0-3.356-1.853-5.419-4.9-5.419-2.937,0-5.174,2.237-5.174,5.629v11.048h-2.1v-11.643a4.8,4.8,0,0,0-5-5.034,5.259,5.259,0,0,0-5.174,5.56v11.117h-2.1Z" fill="#fff"/>
        <path id="Path_154" data-name="Path 154" d="M922.015,16310.925H923.1a3.727,3.727,0,0,0,3.811-2.657l1.049-2.656-7.517-18.985h2.308l6.223,16.048h.21l6.188-16.048h2.342L928.8,16309c-.944,2.413-2.377,3.846-5.314,3.846h-1.469Z" fill="#fff"/>
        <path id="Path_155" data-name="Path 155" d="M784.6,16295.752c0-5.629,3.566-9.58,8.775-9.58a7.273,7.273,0,0,1,6.853,4.125h.21v-3.671h2.1v18.181h-2.027v-3.6h-.21a7.294,7.294,0,0,1-6.783,4.055C788.169,16305.261,784.6,16301.31,784.6,16295.752Zm15.908,0c0-4.65-2.867-7.657-6.888-7.657-4.125,0-6.887,3.146-6.887,7.657,0,4.58,2.762,7.621,6.922,7.621C797.959,16303.373,800.511,16299.912,800.511,16295.752Z" fill="#fff"/>
        <path id="Path_156" data-name="Path 156" d="M822.473,16298.978h-.012a6.587,6.587,0,0,1-6.495,4.6c-4.318,0-7.387-3.355-7.387-7.78,0-4.317,2.962-7.776,7.316-7.776a6.651,6.651,0,0,1,6.471,4.407l2.025-.65a8.857,8.857,0,0,0-8.532-5.721,9.743,9.743,0,0,0,.036,19.48,8.789,8.789,0,0,0,8.575-5.922Z" fill="#fff"/>
      </g>
    </g>
  </g>
</svg>
