<svg xmlns="http://www.w3.org/2000/svg" width="77.411" height="76.861" viewBox="0 0 77.411 76.861">
  <g id="Group_146" data-name="Group 146" transform="translate(-227.191 -7517.67)">
    <g id="Group_140" data-name="Group 140">
      <path id="Path_142" data-name="Path 142" d="M263.308,7589.9a36.117,36.117,0,1,1,36.118-36.118A36.158,36.158,0,0,1,263.308,7589.9Zm0-69.235a33.117,33.117,0,1,0,33.118,33.117A33.155,33.155,0,0,0,263.308,7520.67Z" fill="#1c1c3d"/>
    </g>
    <g id="Group_141" data-name="Group 141">
      <path id="Path_143" data-name="Path 143" d="M263.308,7589.514c-9.989,0-17.813-15.693-17.813-35.727s7.824-35.726,17.813-35.726,17.814,15.693,17.814,35.726S273.3,7589.514,263.308,7589.514Zm0-68.453c-8.029,0-14.813,14.986-14.813,32.726s6.784,32.727,14.813,32.727,14.814-14.987,14.814-32.727S271.338,7521.061,263.308,7521.061Z" fill="#1c1c3d"/>
    </g>
    <g id="Group_142" data-name="Group 142">
      <path id="Path_144" data-name="Path 144" d="M297.926,7555.287H228.691a1.5,1.5,0,0,1,0-3h69.235a1.5,1.5,0,0,1,0,3Z" fill="#1c1c3d"/>
    </g>
    <g id="Group_143" data-name="Group 143">
      <path id="Path_145" data-name="Path 145" d="M263.026,7541.952h-.279a36.34,36.34,0,0,1-25.256-10.9,1.5,1.5,0,1,1,2.164-2.077,32.363,32.363,0,0,0,46.746,0,1.5,1.5,0,0,1,2.164,2.078A36.325,36.325,0,0,1,263.026,7541.952Z" fill="#1c1c3d"/>
    </g>
    <g id="Group_144" data-name="Group 144">
      <path id="Path_146" data-name="Path 146" d="M238.573,7579.25a1.5,1.5,0,0,1-1.082-2.539,36.31,36.31,0,0,1,25.538-10.9h.279a36.358,36.358,0,0,1,25.257,10.9,1.5,1.5,0,0,1-2.164,2.078,33.275,33.275,0,0,0-23.116-9.978h-.256a33.234,33.234,0,0,0-23.374,9.978A1.494,1.494,0,0,1,238.573,7579.25Z" fill="#1c1c3d"/>
    </g>
    <g id="Group_145" data-name="Group 145">
      <path id="Path_147" data-name="Path 147" d="M299.185,7572.859l-28.4-12.338L282.93,7588.8l2.938-7.828,12.058,12.061,5.176-4.938-12.73-13.125Z" fill="#d6f3e9"/>
      <path id="Path_148" data-name="Path 148" d="M297.926,7594.531a1.5,1.5,0,0,1-1.061-.439l-10.411-10.413-2.119,5.647a1.5,1.5,0,0,1-1.369.972,1.472,1.472,0,0,1-1.414-.907l-12.142-28.278a1.5,1.5,0,0,1,1.975-1.968l28.4,12.338a1.5,1.5,0,0,1-.249,2.835l-6.251,1.5,10.9,11.235a1.5,1.5,0,0,1-.042,2.13l-5.176,4.938A1.494,1.494,0,0,1,297.926,7594.531Zm-12.058-15.06a1.5,1.5,0,0,1,1.06.439l11.022,11.025,3.022-2.883-11.676-12.04a1.5,1.5,0,0,1,.728-2.5l4.445-1.064-20.811-9.042,9.179,21.376,1.627-4.335a1.5,1.5,0,0,1,1.4-.973Z" fill="#00daa4"/>
    </g>
  </g>
</svg>
