<svg xmlns="http://www.w3.org/2000/svg" width="71.542" height="63.497" viewBox="0 0 71.542 63.497">
  <g id="Group_118" data-name="Group 118" transform="translate(-1463.217 -16030.313)">
    <path id="Path_157" data-name="Path 157" d="M1533.259,16039.338a16.849,16.849,0,0,1-4.379,5.289c-2.107,1.5-2.325,3.424-2.477,5.779-.974,15.108-6.942,27.69-20.079,35.837-12.857,7.973-26.279,7.761-39.671.97a3.336,3.336,0,0,1-1.936-1.67,28.594,28.594,0,0,0,19.824-6.324c-6.474-1.193-10.9-4.274-12.986-10.274,1.829-.539,3.639.307,5.2-.729-.253-.731-.959-.673-1.478-.921a15.113,15.113,0,0,1-8.856-11.743c-.241-1.444-.225-2.536,1.824-1.525a4.759,4.759,0,0,0,3.558.605c-.049-1.084-.983-1.429-1.5-2.037-3.984-4.671-4.778-9.913-3.011-15.675.518-1.691.957-2.229,2.45-.535,6.978,7.923,15.609,12.84,26.244,14.008,1.577.174,2.1-.027,1.852-1.773a15.268,15.268,0,0,1,8.017-15.294c4.979-2.646,11.087-1.771,15.731,2.374a2.433,2.433,0,0,0,2.7.542,38.443,38.443,0,0,0,7.018-2.93c-.719,3.546-3.019,5.517-5.447,7.891C1528.6,16041.023,1530.641,16040.111,1533.259,16039.338Z" fill="none" stroke="#1c1c3d" stroke-linecap="round" stroke-linejoin="round" stroke-width="3"/>
  </g>
</svg>
