<svg xmlns="http://www.w3.org/2000/svg" width="111.337" height="111.339" viewBox="0 0 111.337 111.339">
  <g id="Group_81" data-name="Group 81" transform="translate(-892.553 -5361.997)">
    <g id="Group_77" data-name="Group 77">
      <path id="Path_111" data-name="Path 111" d="M948.221,5419.6a11.845,11.845,0,1,1,11.846-11.845A11.86,11.86,0,0,1,948.221,5419.6Zm0-18.949a7.1,7.1,0,1,0,7.1,7.1A7.111,7.111,0,0,0,948.221,5400.656Z" fill="#00dca6"/>
    </g>
    <g id="Group_78" data-name="Group 78">
      <path id="Path_112" data-name="Path 112" d="M962.82,5452.116a2.371,2.371,0,0,1-2.371-2.371V5430.6H935.994v19.144a2.371,2.371,0,1,1-4.742,0V5428.23a2.371,2.371,0,0,1,2.371-2.371h29.2a2.371,2.371,0,0,1,2.371,2.371v21.515A2.372,2.372,0,0,1,962.82,5452.116Z" fill="#00dca6"/>
    </g>
    <g id="Group_79" data-name="Group 79">
      <path id="Path_113" data-name="Path 113" d="M916.6,5473.336c-7.28,0-13.3-2.17-17.589-6.456-7.088-7.088-8.387-18.93-3.658-33.344,4.55-13.867,14.191-28.639,27.147-41.6s27.727-22.6,41.594-27.146c14.414-4.73,26.256-3.43,33.344,3.658h0c7.088,7.088,8.387,18.93,3.658,33.344-4.55,13.867-14.191,28.639-27.147,41.6s-27.727,22.6-41.594,27.146A51.032,51.032,0,0,1,916.6,5473.336Zm63.25-106.6a46.423,46.423,0,0,0-14.278,2.57c-13.174,4.323-27.28,13.554-39.72,25.993s-21.671,26.546-25.993,39.721c-4.144,12.627-3.254,22.753,2.505,28.512s15.885,6.649,28.512,2.505c13.174-4.322,27.281-13.554,39.721-25.993s21.671-26.546,25.993-39.721c4.143-12.626,3.253-22.753-2.505-28.512C990.71,5368.434,985.839,5366.731,979.847,5366.731Z" fill="#1c1c3d"/>
    </g>
    <g id="Group_80" data-name="Group 80">
      <path id="Path_114" data-name="Path 114" d="M979.846,5473.336a51.032,51.032,0,0,1-15.755-2.8c-13.867-4.55-28.639-14.191-41.6-27.146s-22.6-27.728-27.146-41.6c-4.729-14.414-3.43-26.256,3.658-33.344s18.929-8.388,33.344-3.658c13.867,4.55,28.639,14.191,41.594,27.146s22.6,27.728,27.147,41.6c4.729,14.414,3.43,26.256-3.658,33.344C993.149,5471.166,987.125,5473.336,979.846,5473.336Zm-63.25-106.6c-5.993,0-10.862,1.7-14.235,5.075-5.759,5.759-6.649,15.885-2.505,28.512,4.322,13.175,13.554,27.281,25.993,39.721s26.546,21.671,39.72,25.993c12.628,4.144,22.754,3.254,28.513-2.505s6.649-15.885,2.505-28.512c-4.322-13.175-13.554-27.281-25.993-39.721s-26.547-21.67-39.721-25.993A46.412,46.412,0,0,0,916.6,5366.731Z" fill="#1c1c3d"/>
    </g>
  </g>
</svg>
