<svg xmlns="http://www.w3.org/2000/svg" width="127.434" height="127.037" viewBox="0 0 127.434 127.037">
  <g id="Group_90" data-name="Group 90" transform="translate(-1434.002 -5354.148)">
    <g id="Group_82" data-name="Group 82">
      <path id="Path_115" data-name="Path 115" d="M1497.719,5478.4a2.277,2.277,0,0,1-2.277-2.277v-56.829a2.276,2.276,0,0,1,4.553,0v56.829A2.277,2.277,0,0,1,1497.719,5478.4Z" fill="#00dca6"/>
    </g>
    <g id="Group_83" data-name="Group 83">
      <path id="Path_116" data-name="Path 116" d="M1559.159,5421.477H1436.278A2.276,2.276,0,0,1,1434,5419.2v-27.428a2.277,2.277,0,0,1,2.276-2.277h122.881a2.277,2.277,0,0,1,2.277,2.277V5419.2A2.276,2.276,0,0,1,1559.159,5421.477Zm-120.6-4.553h118.328v-22.875H1438.555Z" fill="#1c1c3d"/>
    </g>
    <g id="Group_84" data-name="Group 84">
      <path id="Path_117" data-name="Path 117" d="M1536.356,5481.185H1459.08c-10.531,0-19.1-7.718-19.1-17.2V5419.2a2.277,2.277,0,0,1,4.554,0v44.781c0,6.975,6.525,12.651,14.545,12.651h77.276c8.021,0,14.546-5.676,14.546-12.651v-43.213a2.276,2.276,0,0,1,4.553,0v43.213C1555.455,5473.467,1546.888,5481.185,1536.356,5481.185Z" fill="#1c1c3d"/>
    </g>
    <g id="Group_87" data-name="Group 87">
      <g id="Group_85" data-name="Group 85">
        <path id="Path_118" data-name="Path 118" d="M1485.349,5383.356a14.6,14.6,0,1,1,14.6-14.6A14.621,14.621,0,0,1,1485.349,5383.356Zm0-24.655a10.051,10.051,0,1,0,10.05,10.051A10.063,10.063,0,0,0,1485.349,5358.7Z" fill="#00dca6"/>
      </g>
      <g id="Group_86" data-name="Group 86">
        <path id="Path_119" data-name="Path 119" d="M1510.089,5383.356a14.6,14.6,0,1,1,14.6-14.6A14.621,14.621,0,0,1,1510.089,5383.356Zm0-24.655a10.051,10.051,0,1,0,10.05,10.051A10.062,10.062,0,0,0,1510.089,5358.7Z" fill="#00dca6"/>
      </g>
    </g>
    <g id="Group_88" data-name="Group 88">
      <path id="Path_120" data-name="Path 120" d="M1497.719,5425.271a2.276,2.276,0,0,1-2.277-2.276v-31.223a2.276,2.276,0,1,1,4.553,0V5423A2.276,2.276,0,0,1,1497.719,5425.271Z" fill="#00dca6"/>
    </g>
    <g id="Group_89" data-name="Group 89">
      <path id="Path_121" data-name="Path 121" d="M1559.159,5394.049H1436.278a2.277,2.277,0,0,1,0-4.554h122.881a2.277,2.277,0,1,1,0,4.554Z" fill="#1c1c3d"/>
    </g>
  </g>
</svg>
