 <svg xmlns="http://www.w3.org/2000/svg" width="138.956" height="135.111" viewBox="0 0 138.956 135.111">
            <g id="Group_76" data-name="Group 76" transform="translate(-304.972 -4667.202)">
              <g id="Group_72" data-name="Group 72">
                <g id="Group_70" data-name="Group 70">
                  <path id="Path_106" data-name="Path 106" d="M363.119,4723.614H307.343a2.371,2.371,0,1,1,0-4.742h55.776a2.371,2.371,0,1,1,0,4.742Z" fill="#1c1c3d"/>
                </g>
                <g id="Group_71" data-name="Group 71">
                  <path id="Path_107" data-name="Path 107" d="M441.166,4723.614H386.181a2.371,2.371,0,1,1,0-4.742h54.985a2.371,2.371,0,1,1,0,4.742Z" fill="#1c1c3d"/>
                </g>
              </g>
              
              <g id="Group_73" data-name="Group 73">
                <path id="Path_108" data-name="Path 108" d="M441.557,4786.691h-49.4a2.371,2.371,0,1,1,0-4.742h47.028V4692.34H309.714v89.609h48.234a2.371,2.371,0,1,1,0,4.742H307.343a2.372,2.372,0,0,1-2.371-2.371v-94.351a2.372,2.372,0,0,1,2.371-2.371H441.557a2.371,2.371,0,0,1,2.371,2.371v94.351A2.371,2.371,0,0,1,441.557,4786.691Z" fill="#1c1c3d" />
            
              </g>
              <g id="Group_74" data-name="Group 74">
                <path id="Path_109" data-name="Path 109" d="M400.489,4692.34a2.372,2.372,0,0,1-2.371-2.371v-18.025H350.783v18.025a2.371,2.371,0,0,1-4.742,0v-20.4a2.371,2.371,0,0,1,2.371-2.371h52.077a2.371,2.371,0,0,1,2.371,2.371v20.4A2.371,2.371,0,0,1,400.489,4692.34Z" fill="#1c1c3d"/>
              </g>
              <g id="Group_75" data-name="Group 75">
                <path id="Path_110" data-name="Path 110" d="M374.45,4802.313a2.37,2.37,0,0,1-1.685-.7l-16.474-16.655a2.373,2.373,0,0,1-.5-2.588l16.086-38.189-16.086-38.189a2.371,2.371,0,0,1,2.185-3.291h32.947a2.371,2.371,0,0,1,2.185,3.291l-16.086,38.189,16.086,38.189a2.371,2.371,0,0,1-.5,2.588l-16.473,16.655A2.371,2.371,0,0,1,374.45,4802.313Zm-13.672-19.567,13.672,13.824,13.673-13.824-13.673-32.46Zm.771-75.307,12.9,30.63,12.9-30.63Z" fill="#00dca6"/>
              </g>
            </g>
          </svg>