<svg xmlns="http://www.w3.org/2000/svg" width="126.275" height="129.125" viewBox="0 0 126.275 129.125">
  <g id="Group_69" data-name="Group 69" transform="translate(-1434.581 -4670.195)">
    <g id="Group_57" data-name="Group 57">
      <path id="Path_94" data-name="Path 94" d="M1509.054,4798.36a21.857,21.857,0,0,1-12.039-3.868,2.249,2.249,0,0,1,2.644-3.638c.667.484,6.718,4.668,13.779,2.291a15.278,15.278,0,0,0,8.265-7,2.249,2.249,0,0,1,2.687-1.04c.885.3,8.834,2.794,15.092-1.625,6.487-4.582,8.442-14.328,4.547-22.671a2.25,2.25,0,0,1,.978-2.935c1.95-1.042,8.476-5.064,10.6-13.081.689-2.6,2.449-11.578-3.822-17.815a2.249,2.249,0,0,1,3.173-3.189c7.977,7.936,5.842,18.964,5,22.155a25.963,25.963,0,0,1-11.057,14.845c3.678,9.847.922,20.9-6.818,26.365-6.44,4.547-13.878,3.559-17.393,2.707a19.591,19.591,0,0,1-9.811,7.546A18.172,18.172,0,0,1,1509.054,4798.36Z" fill="#1c1c3d"/>
    </g>
    <g id="Group_58" data-name="Group 58">
      <path id="Path_95" data-name="Path 95" d="M1546.069,4762.108a2.242,2.242,0,0,1-1.769-.86,10.24,10.24,0,0,0-7.084-3.838,9.9,9.9,0,0,0-6.276,1.738,2.249,2.249,0,0,1-2.547-3.708,14.463,14.463,0,0,1,9.146-2.516,14.835,14.835,0,0,1,10.3,5.545,2.249,2.249,0,0,1-1.767,3.639Z" fill="#1c1c3d"/>
    </g>
    <g id="Group_59" data-name="Group 59">
      <path id="Path_96" data-name="Path 96" d="M1524.056,4706.753a16.833,16.833,0,0,1-5.361-.877,2.249,2.249,0,1,1,1.458-4.255,11.719,11.719,0,0,0,8.718-.444,12.024,12.024,0,0,0,5.578-5.943c2.309-6.055-2.154-14.359-7.687-17.738-7.624-4.656-19.022-1.731-26.518,6.8a2.249,2.249,0,0,1-3.379-2.969c8.916-10.153,22.779-13.452,32.241-7.673,7.2,4.4,12.756,14.762,9.545,23.18a16.584,16.584,0,0,1-7.842,8.4A15.564,15.564,0,0,1,1524.056,4706.753Z" fill="#1c1c3d"/>
    </g>
    <g id="Group_60" data-name="Group 60">
      <path id="Path_97" data-name="Path 97" d="M1495.88,4719.5h-11.912a2.249,2.249,0,0,1-2.249-2.249v-4.412h-13.1a2.249,2.249,0,1,1,0-4.5h15.35a2.249,2.249,0,0,1,2.249,2.249V4715h9.663a2.249,2.249,0,1,1,0,4.5Z" fill="#1c1c3d"/>
    </g>
    <g id="Group_61" data-name="Group 61">
      <path id="Path_98" data-name="Path 98" d="M1469.811,4736.992h-29.7a2.249,2.249,0,0,1,0-4.5h29.7a2.249,2.249,0,0,1,0,4.5Z" fill="#1c1c3d"/>
    </g>
    <g id="Group_62" data-name="Group 62">
      <path id="Path_99" data-name="Path 99" d="M1474.849,4765.777a2.248,2.248,0,0,1-2.249-2.249v-9.733a2.249,2.249,0,0,1,2.249-2.249h23.488a2.249,2.249,0,1,1,0,4.5H1477.1v7.484A2.249,2.249,0,0,1,1474.849,4765.777Z" fill="#1c1c3d"/>
    </g>
    <g id="Group_63" data-name="Group 63">
      <path id="Path_100" data-name="Path 100" d="M1461.01,4720.269a9.547,9.547,0,1,1,9.546-9.546A9.557,9.557,0,0,1,1461.01,4720.269Zm0-14.6a5.049,5.049,0,1,0,5.048,5.049A5.055,5.055,0,0,0,1461.01,4705.674Z" fill="#00dca6"/>
    </g>
    <g id="Group_64" data-name="Group 64">
      <path id="Path_101" data-name="Path 101" d="M1474.985,4780.372a9.547,9.547,0,1,1,9.546-9.546A9.557,9.557,0,0,1,1474.985,4780.372Zm0-14.6a5.049,5.049,0,1,0,5.048,5.049A5.056,5.056,0,0,0,1474.985,4765.777Z" fill="#00dca6"/>
    </g>
    <g id="Group_65" data-name="Group 65">
      <path id="Path_102" data-name="Path 102" d="M1477.363,4744.29a9.547,9.547,0,1,1,9.546-9.547A9.557,9.557,0,0,1,1477.363,4744.29Zm0-14.6a5.049,5.049,0,1,0,5.048,5.048A5.054,5.054,0,0,0,1477.363,4729.695Z" fill="#00dca6"/>
    </g>
    <g id="Group_66" data-name="Group 66">
      <path id="Path_103" data-name="Path 103" d="M1486.011,4799.32q-.687,0-1.4-.046a22.286,22.286,0,0,1-14.789-7.242,24.029,24.029,0,0,1-16.354-7.015c-5.969-6.17-7.965-15.475-5.327-24.193-3.432-1.789-10.188-6.346-12.186-15.228a22.923,22.923,0,0,1,4.406-18.9,21.945,21.945,0,0,1,15.751-36.816,23.285,23.285,0,0,1,44.276-5.87,2.249,2.249,0,0,1,.2.924v107.743a2.25,2.25,0,0,1-.832,1.747A22.255,22.255,0,0,1,1486.011,4799.32Zm-15.148-11.769a2.253,2.253,0,0,1,1.745.83,17.774,17.774,0,0,0,12.3,6.405,17.5,17.5,0,0,0,11.183-3.23V4685.428a18.793,18.793,0,0,0-35.732,6.843,2.262,2.262,0,0,1-2.329,2.089c-8.416-.322-15.9,4.783-18.234,12.417a18.041,18.041,0,0,0,5.139,18.178,2.25,2.25,0,0,1,.067,3.206c-.277.284-6.765,7.071-4.656,16.448,2.125,9.445,10.982,12.773,11.358,12.91a2.249,2.249,0,0,1,1.325,2.93c-2.98,7.638-1.538,16.053,3.675,21.44,5.142,5.314,12.108,5.686,14.145,5.662Zm27.474,5.122h0Z" fill="#1c1c3d"/>
    </g>
    <g id="Group_67" data-name="Group 67">
      <path id="Path_104" data-name="Path 104" d="M1521.79,4738.874a2.251,2.251,0,0,1-2.1-3.045c.208-.551,5.252-13.515,18.415-15.761a23.411,23.411,0,0,1,14.56,2.339c1.652-2.755,4.325-8.6,2.4-15.249-2.125-7.353-9.026-12.806-17.172-13.569a2.248,2.248,0,0,1-2.014-1.907c-1.071-7.172-5.465-13.086-11.466-15.435-8.613-3.369-18.983.847-24.126,9.8a2.249,2.249,0,0,1-3.9-2.24c6.245-10.873,19-15.926,29.665-11.751,7.011,2.743,12.25,9.272,13.969,17.27,9.22,1.5,16.884,7.992,19.366,16.58,3.068,10.62-2.99,19.23-4.236,20.848a2.249,2.249,0,0,1-2.973.536,19.61,19.61,0,0,0-13.319-2.791c-10.652,1.817-14.923,12.807-14.965,12.918A2.25,2.25,0,0,1,1521.79,4738.874Z" fill="#1c1c3d"/>
    </g>
    <g id="Group_68" data-name="Group 68">
      <path id="Path_105" data-name="Path 105" d="M1523.668,4789.486a2.228,2.228,0,0,1-1.063-.269c-5.947-3.2-9.438-8.612-9.11-14.13a2.249,2.249,0,0,1,4.49.266c-.219,3.693,2.431,7.58,6.75,9.9a2.249,2.249,0,0,1-1.067,4.23Z" fill="#1c1c3d"/>
    </g>
  </g>
</svg>
