<svg xmlns="http://www.w3.org/2000/svg" width="139.923" height="95.065" viewBox="0 0 139.923 95.065">
  <g id="Group_93" data-name="Group 93" transform="translate(-304.489 -5370.134)">
    <g id="Group_91" data-name="Group 91">
      <path id="Path_122" data-name="Path 122" d="M352.021,5465.2a47.533,47.533,0,1,1,47.532-47.533A47.586,47.586,0,0,1,352.021,5465.2Zm0-90.323a42.791,42.791,0,1,0,42.79,42.79A42.838,42.838,0,0,0,352.021,5374.876Z" fill="#1c1c3d"/>
    </g>
    <g id="Group_92" data-name="Group 92">
      <path id="Path_123" data-name="Path 123" d="M396.88,5465.2a47.533,47.533,0,1,1,47.532-47.533A47.587,47.587,0,0,1,396.88,5465.2Zm0-90.323a42.791,42.791,0,1,0,42.79,42.79A42.839,42.839,0,0,0,396.88,5374.876Z" fill="#00dca6"/>
    </g>
  </g>
</svg>
