<svg xmlns="http://www.w3.org/2000/svg" width="134.919" height="130.96" viewBox="0 0 134.919 130.96">
  <g id="Group_104" data-name="Group 104" transform="translate(-880.762 -4669.278)">
    <g id="Group_94" data-name="Group 94">
      <path id="Path_124" data-name="Path 124" d="M979.275,4799.852h-58.86a2.372,2.372,0,0,1-2.371-2.371v-94.712a2.372,2.372,0,0,1,2.371-2.371h58.86a2.372,2.372,0,0,1,2.371,2.371v94.712A2.372,2.372,0,0,1,979.275,4799.852Zm-56.489-4.742H976.9v-89.97H922.786Z" fill="#1c1c3d"/>
    </g>
    <g id="Group_95" data-name="Group 95">
      <path id="Path_125" data-name="Path 125" d="M1013.31,4800.238H883.133a2.371,2.371,0,0,1-2.371-2.371v-21.349a2.371,2.371,0,1,1,4.742,0V4795.5h125.435V4745.3H981.8a2.371,2.371,0,0,1,0-4.742h31.507a2.371,2.371,0,0,1,2.371,2.371v54.934A2.372,2.372,0,0,1,1013.31,4800.238Z" fill="#1c1c3d"/>
    </g>
    <g id="Group_96" data-name="Group 96">
      <path id="Path_126" data-name="Path 126" d="M883.133,4778.218a2.371,2.371,0,0,1-2.371-2.371v-32.914a2.371,2.371,0,0,1,2.371-2.371h37.282a2.371,2.371,0,0,1,0,4.742H885.5v30.543A2.372,2.372,0,0,1,883.133,4778.218Z" fill="#1c1c3d"/>
    </g>
    <g id="Group_97" data-name="Group 97">
      <path id="Path_127" data-name="Path 127" d="M991.582,4704.109a2.2,2.2,0,0,1-.27-.016,2.37,2.37,0,0,1-2.089-2.622,7.245,7.245,0,0,0-1.979-5.665,7.148,7.148,0,0,0-5.44-1.972,2.371,2.371,0,1,1-.4-4.725,11.856,11.856,0,0,1,9.181,3.334,12.014,12.014,0,0,1,3.348,9.561A2.372,2.372,0,0,1,991.582,4704.109Z" fill="#00dca6"/>
    </g>
    <g id="Group_98" data-name="Group 98">
      <path id="Path_128" data-name="Path 128" d="M1002.03,4702.815l-.125,0a2.372,2.372,0,0,1-2.245-2.491,15.973,15.973,0,0,0-3.495-10.755,16.167,16.167,0,0,0-10.878-5.7,2.371,2.371,0,0,1,.4-4.725,21.031,21.031,0,0,1,14.152,7.428,20.8,20.8,0,0,1,4.557,14A2.372,2.372,0,0,1,1002.03,4702.815Z" fill="#00dca6"/>
    </g>
    <g id="Group_99" data-name="Group 99">
      <path id="Path_129" data-name="Path 129" d="M1012.806,4702.815c-.08,0-.16,0-.242-.012a2.371,2.371,0,0,1-2.12-2.6c.194-1.912.809-11.834-6.1-19.479a20.192,20.192,0,0,0-16.41-6.654,2.371,2.371,0,1,1-.441-4.721,25.061,25.061,0,0,1,20.369,8.2c8.253,9.131,7.529,20.874,7.3,23.136A2.372,2.372,0,0,1,1012.806,4702.815Z" fill="#00dca6"/>
    </g>
    <g id="Group_100" data-name="Group 100">
      <path id="Path_130" data-name="Path 130" d="M940.705,4796.682a2.37,2.37,0,0,1-2.371-2.371v-63.09a2.371,2.371,0,1,1,4.742,0v63.09A2.371,2.371,0,0,1,940.705,4796.682Z" fill="#1c1c3d"/>
    </g>
    <g id="Group_101" data-name="Group 101">
      <path id="Path_131" data-name="Path 131" d="M958.41,4800.238a2.372,2.372,0,0,1-2.371-2.371v-54.934a2.371,2.371,0,1,1,4.742,0v54.934A2.372,2.372,0,0,1,958.41,4800.238Z" fill="#1c1c3d"/>
    </g>
    <g id="Group_102" data-name="Group 102">
      <path id="Path_132" data-name="Path 132" d="M958.41,4744.271a2.372,2.372,0,0,1-2.371-2.371v-39.131a2.371,2.371,0,1,1,4.742,0V4741.9A2.372,2.372,0,0,1,958.41,4744.271Z" fill="#1c1c3d"/>
    </g>
    <g id="Group_103" data-name="Group 103">
      <path id="Path_133" data-name="Path 133" d="M940.705,4725.411a2.37,2.37,0,0,1-2.371-2.371v-20.271a2.371,2.371,0,1,1,4.742,0v20.271A2.371,2.371,0,0,1,940.705,4725.411Z" fill="#1c1c3d"/>
    </g>
  </g>
</svg>
